
<svg xmlns="http://www.w3.org/2000/svg" version="1.1" xmlns:xlink="http://www.w3.org/1999/xlink" preserveAspectRatio="none" x="0px" y="0px" width="1000px" height="1000px" viewBox="0 0 1000 1000">
<defs>
<g id="Layer0_0_FILL">
<path fill="#990000" fill-opacity="0.9921568627450981" stroke="none" d="
M 876.95 524.9
Q 867.55 534.2 858.2 543.55 847.1 554.65 836 565.95 824.9 577.05 813.75 588.2 802.65 599.3 791.55 610.4 785.5 616.45 779.45 622.4 776.25 619.2 773.1 616.05 763.9 606.95 754.7 597.75 745.65 588.6 736.5 579.45 727.3 570.25 718.15 561 708.95 552 699.9 542.75 691.4 534.25 682.75 526
L 682.7 526.1
Q 682.65 526.05 682.6 526
L 618.55 590
Q 627.85 599.4 637.2 608.75 648.3 619.85 659.6 631 670.7 642.1 681.85 653.25 692.95 664.35 704.05 675.45 709.7 681.05 715.25 686.7 710.42421875 691.52578125 705.5 696.35 703.4685546875 698.4111328125 701.4 700.45 690.3 711.55 679.2 722.65 668.1 733.75 657 744.95 648.0482421875 753.7419921875 639.15 762.6 636.928125 764.821875 634.7 767.05 626.6 775.25 618.4 783.45
L 682.55 847.6
Q 682.7 847.5 682.8 847.35
L 683.3 847.85
Q 684.05 847.2 684.7 846.45 693.95 837.3 703.1 828.15 703.5390625 827.7158203125 703.95 827.25 712.7365234375 818.6134765625 721.45 809.9 730.55 800.7 739.7 791.55 748.85 782.4 757.95 773.2 767.2 764.15 776.3 754.9 778.15 753.15 779.95 751.35 787 758.4 794.1 765.55 798.9548828125 770.4048828125 803.8 775.25 810.0548828125 781.5048828125 816.3 787.75 827.4 798.85 838.6 810 849.6 821.15 860.7 832.25 868.9 840.35 877.1 848.55
L 941.25 784.45
Q 941.05 784.2 940.8 783.95 940.4 783.55 940.05 783.2 938.2 781.2 936.35 779.2 927.15 770.1 918.05 760.9 908.9 751.65 899.65 742.7 890.55 733.5 881.35 724.4 874.655078125 717.705078125 868.05 711 865.5642578125 708.54140625 863.1 706.05 853.95 696.9 844.7 687.75 844.45 687.35 844.2 687.05 847.35 683.9 850.5 680.85 859.65 671.6 868.85 662.5 877.95 653.35 887.1 644.15 896.25 635.1 905.4 625.85 914.6 616.75 923.7 607.6 932.75 598.5 941.6 589.25
L 878.1 525.75
Q 878 525.8 877.95 525.9
L 876.95 524.9 Z"/>

<path fill="#990000" fill-opacity="0.996078431372549" stroke="none" d="
M 894.6 18.25
Q 893.55 17.7 892.5 17.05 879.25 9.55 858.45 8.55 857.75 8.55 857.05 8.55 825.45 7.85 793.85 7.85 752.4 7.85 710.95 7.85 669.55 7.85 628.1 7.85 586.65 7.85 545.25 7.85 503.8 7.85 462.4 7.85 420.95 7.85 379.5 7.85 338.1 7.85 296.65 7.85 255.2 7.85 213.8 7.85 172.35 7.85 130.9 7.35 109.05 7.1 90.2 9.25 80.7 10.3 73.1 12.85 57.05 18.25 46 28.2 45.25 28.9 44.4 29.6 21.45 47.95 12.45 80.75 12.25 81.6 12.25 82.2 12.5 87.5 10.15 89.3 10.15 125.85 10.15 162.35 10.15 203.8 10.15 245.2 10.15 286.65 10.15 328.1 10.15 369.5 10.15 410.95 10.15 452.4 10.15 493.8 10.15 535.25 10.15 576.65 10.15 618.1 9.55 659.55 9.3 681.5 15.25 696.25 15.75 697.45 16.25 698.65 22.65 713.1 31.9 724.7 50.35 747.8 84.45 755.55 85.25 755.75 86.05 755.8 114.75 758.55 146.35 758.25 187.8 757.85 229.25 757.85 270.65 757.85 312.1 757.85 353.55 757.85 394.95 757.85 436.4 757.85 477.8 757.85 477.8 752.25 477.8 746.6 477.8 705.2 477.8 663.75 456.05 663.75 434.3 663.75 392.85 663.75 351.4 663.75 310 663.75 268.55 663.75 227.1 663.75 185.7 663.75 144.25 663.75 102.8 663.75 102.8 642 102.8 620.2 102.8 578.8 102.8 537.35 102.8 495.9 102.8 454.5 102.8 413.05 102.8 371.6 102.8 330.2 102.8 288.75 102.8 247.3 101.9 205.9 101.75 199.2 104.25 196.05 120.8 206.85 137.85 217.25 163.5 233 188.7 249.1 214.05 265.3 239.95 281.1 243.25 283.15 246.55 285.1 260.15 292.95 272.9 301.1 298.35 317.25 323.55 333.35 336.55 341.55 349.6 349.85 374.75 365.85 400.6 381.45 426.4 397.05 451.55 413.1 452.55 413.75 453.45 414.45 464.6 422.75 477.8 429.2 478.55 429.2 479 428.9 504.5 413.05 529.65 396.75 530.5 396.2 531.35 395.7 544.95 388.2 557.9 379.95 583.15 363.9 608.3 347.6 609.15 347.05 610 346.55 623.6 339.05 636.55 330.8 661.8 314.75 686.95 298.45 687.8 297.9 688.65 297.4 702.25 289.9 715.2 281.65 740.45 265.6 765.6 249.3 766.45 248.7 767.3 248.25 780.9 240.7 793.5 232.1 796.7 229.85 800.35 227.6 825.85 211.95 851.4 196.05 852.1 196.75 852.1 197.45 852.8 230.45 852.8 263.45 852.8 304.9 852.8 346.35 852.8 387.75 852.8 429.2 857.75 429.2 862.65 429.2 904.1 429.2 945.5 429.2 945.5 395.5 945.5 361.8 945.5 320.35 945.5 278.9 945.5 237.5 945.5 196.05 945.5 154.6 945.5 113.2 945.5 102.65 944.7 92.2 943.05 73.5 935.7 59.8 921.2 32.85 894.6 18.25
M 841.3 108.65
Q 828.95 117.4 815.4 125.25 812.1 127.25 808.8 129.25 782.9 145.05 757.55 161.3 732.3 177.4 706.9 193.55 694.1 201.65 680.55 209.55 677.25 211.5 673.95 213.55 648.05 229.35 622.7 245.55 597.5 261.65 572.05 277.8 559.3 285.95 545.75 293.8 542.45 295.75 539.15 297.8 513.2 313.6 488.1 330.05 485.2 331.95 482.25 334 480.55 335.05 477.8 335.1 464.05 327.8 451.2 319.6 425.85 303.5 400.5 287.4 387.65 279.2 374.05 271.7 373.2 271.2 372.35 270.65 347.2 254.35 321.85 238.25 309 230.05 295.4 222.55 294.55 222.05 293.7 221.5 268.55 205.2 243.2 189.1 230.35 180.9 216.75 173.35 215.9 172.9 215.05 172.3 189.9 156.05 164.55 139.95 151.7 131.75 138.5 123.5 121.35 112.9 104.25 101.95 145.65 101.95 187.1 101.95 228.55 101.95 269.95 101.95 311.4 101.95 352.8 101.95 394.25 101.95 435.7 101.95 477.1 101.95 518.55 101.95 560 101.95 601.4 101.95 642.85 101.95 684.3 101.95 725.7 101.95 767.15 101.95 808.6 101.95 850 102.65 850.7 102.65 851.4 103.35 845.8 105.45 841.3 108.65 Z"/>
</g>
</defs>

<g transform="matrix( 1, 0, 0, 1, 0,0) ">
<use xlink:href="#Layer0_0_FILL"/>
</g>
</svg>
