
<svg xmlns="http://www.w3.org/2000/svg" version="1.1" xmlns:xlink="http://www.w3.org/1999/xlink" preserveAspectRatio="none" x="0px" y="0px" width="1000px" height="1000px" viewBox="0 0 1000 1000">
<defs>
<g id="Layer1_0_FILL">
<path fill="#000000" stroke="none" d="
M 973.7 293.9
Q 974.36328125 291.2623046875 974.55 287.9 974.65 285.55 974.5 281.35 974.15 270.8 973.6 265.6 972.65 256.9 970.3 250.3 967.3 241.95 960.8 233.1 956.45 227.2 947.9 217.95 940.1 209.4 935.1 204.6 927.7 197.6 920.8 193 912.35 187.35 902.4 184 895.75 181.75 887.3 180.35 881.45 179.3 871.85 178.3 847.25 175.7 821.85 174.65 799.45 173.65 785.6 175.25 775.7 176.7 770.7 177.3 761.95 178.4 755.8 177.95 751.4 177.6 744.1 176.1 735.55 174.3 732.4 173.9 724.55 172.85 713.65 173.4 701.1 174.3 694.85 174.65 684.65 175.25 669.3 175.05 652.25 174.75 643.75 174.75 613.1 174.8 593.55 180.35 576.25 185.25 561.05 195.4 545.85 205.5 534.7 219.55 519.75 238.3 515.35 259.3 514.1 265.4 513.5 273.2 513.15 277.85 512.85 287.2
L 511.5 329.4
Q 510.7 354.15 508.15 367.45 504.1 388.2 493.65 401.4 490.55 405.3 485.4 410.3 479.5 415.9 476.6 418.75 468.028515625 427.158984375 464.15 434.55 460.7373046875 436.5169921875 456.6 438.95 443.35 446.8 434.6 449.65 425.25 452.65 412.85 453.45 405.9 453.85 390.55 453.65 360.75 453.3 320.1 454.2 273.15 455.45 249.65 456 203.85 457.15 177 456.3 161.8 455.85 157.55 455.85 146.6 455.95 138.25 457.45 112.65 462.05 86 484 70.8 496.5 63.85 508.25 59.95 514.85 57.05 523.5 54.85 530.15 52.8 539.7 44.2 579.9 47 621.05 47.35 626.45 49.8 650.25 51.6 668.15 51.65 679.5 51.7 689.85 50.4 704.35 49.65 712.65 48.05 729.25 46.1751953125 751.0984375 47.6 767.05 46.3763671875 769.947265625 45.8 773.55 45.25 777.1 45.25 782.7 45.15 828.75 62.6 861.95 72.45 880.7 87.55 894.35 103.55 908.7 122.55 914.7 139.45 920 165.05 919.7 170.8 919.6 186.8 918.95 200.55 918.35 208.55 918.45 219.1 918.6 237.65 920.2 258.35 922 266.75 922.3 279.55 922.8 299.7 922.05 327.1 921.05 332.6 921 346.9 920.85 375.55 921.5 401.05 921.7 418.3 919.6 435.55 917.45 441.8 917.6 449.840625 917.81328125 455.9 920.2 454.57421875 920.2939453125 453.6 920.7 452.05 921.3 451.9 922.55
L 460.6 922.6
Q 461.815625 923.3419921875 462.9 924.2 462.2623046875 923.3701171875 461.55 922.6
L 851.25 924.85
Q 867.6 924.9 875.7 924.15 889.25 922.95 899.3 918.9 905.4 916.45 912.4 912.1 916.55 909.55 924.75 903.75 934.2 897.1 938.75 893.3 946.2 887.1 950.85 880.85 954.25 876.2 957.3 870 959.6 865.4 962.35 858.4 968.35 843.4 970.85 832.8 975.45 813.35 974.25 784.45 971.9 751.75 971.6 735.45 971.4 724.2 972.2 708.8 973.25 691.05 973.7 682.15 975.5 647.75 975 605.55 974.7 577 972.95 528.95 972.25 507.7 972.15 501.65 971.75 473 974.6 424.5 977.85 367.85 978.25 347.3 978.55 332.2 977.6 323.5 975.5 309.65 974.55 302.75 973.9009765625 298.05390625 973.7 293.9 Z"/>
</g>

<path id="Layer0_0_MEMBER_0_1_STROKES" stroke="#FFFFFF" stroke-width="18" stroke-linejoin="round" stroke-linecap="round" fill="none" d="
M 902.1 499.45
L 902.1 295
Q 902.1 293.9 902.1 292.75 902.0451171875 290.8138671875 901.9 288.925 900.1849609375 266.5998046875 885.9 249.55
M 50.35 809.6
L 50.35 567.25
Q 50.35 521.75 82.5 489.55 114.7 457.4 160.2 457.4
L 403.775 457.375
Q 447.4546875 456.3953125 478.6 425.25 509.79375 394.05625 510.775 350.375
L 510.8 287.45
Q 510.8 241.95 542.95 209.8 575.15 177.6 620.65 177.6
L 863 177.6
Q 908.5 177.6 940.65 209.8 972.85 241.95 972.85 287.45
L 972.85 554.8
M 753.8 377.65
L 753.8 496.2
Q 753.8 498.05 753.8 499.9 753.75 501.5 753.65 503.1 751.6 530.85 733.45 552 731.05 554.75 728.45 557.35 706 579.85 675.2 582.4 671.3 582.7 667.3 582.7
L 556.1 582.7
M 902.1 509.3
L 902.1 700.2
Q 902.1 702.05 902.1 703.9 900.8 737.3 876.75 761.35 851.45 786.7 815.6 786.7
L 162.8 786.7
Q 162.19765625 786.68828125 161.6 786.675 136.9185546875 786.0005859375 118.4 770.5
M 863 919.45
L 160.2 919.45
Q 114.7 919.45 82.5 887.25 50.35 855.1 50.35 809.6
M 972.85 567.25
L 972.85 809.6
Q 972.85 811.9681640625 972.775 814.3 971.1740234375 856.7732421875 940.65 887.25 908.5 919.45 863 919.45"/>

<path id="S_mbolo_1_0_Layer1_0_1_STROKES" stroke="#FFFFFF" stroke-width="18" stroke-linejoin="round" stroke-linecap="round" fill="none" d="
M 55.9 33.2
L 41.85 33.2 41.85 52.5 55.9 59 55.9 33.2 55.9 19
M 55.9 59
L 72 66.4 72 0 0 33.2 41.85 33.2 41.85 16.6
M 0 33.2
L 41.85 52.5"/>

<path id="Layer0_0_MEMBER_1_1_STROKES" stroke="#FFFFFF" stroke-width="18" stroke-linejoin="round" stroke-linecap="round" fill="none" d="
M 972.85 595.15
L 972.85 511.25"/>

<path id="Layer0_0_MEMBER_2_1_STROKES" stroke="#FFFFFF" stroke-width="18" stroke-linejoin="round" stroke-linecap="round" fill="none" d="
M 902.1182914733888 531.2523139953613
L 902.1182914733888 465.1639091491699"/>
</defs>

<g transform="matrix( 1, 0, 0, 1, 0,0) ">
<use xlink:href="#Layer1_0_FILL"/>
</g>

<g transform="matrix( 1, 0, 0, 1, 0,0) ">
<use xlink:href="#Layer0_0_MEMBER_0_1_STROKES"/>
</g>

<g transform="matrix( 1, 0, 0, 1, 500.2,549.5) ">
<g transform="matrix( 1, 0, 0, 1, 0,0) ">
<use xlink:href="#S_mbolo_1_0_Layer1_0_1_STROKES"/>
</g>
</g>

<g transform="matrix( 1, 0, 0, 1, 0,0) ">
<use xlink:href="#Layer0_0_MEMBER_1_1_STROKES"/>
</g>

<g transform="matrix( 0.7877044677734375, 0, 0, 0.7877044677734375, 135.8,62.45) ">
<use xlink:href="#Layer0_0_MEMBER_2_1_STROKES" transform="matrix( 1.269500732421875, 0, 0, 1.269500732421875, -172.35,-79.25) "/>
</g>

<g transform="matrix( 1, 0, 0, 1, 236.2,648.35) ">
<clipPath id="Mask_Mask_1">
<rect x="-2" y="-2" width="667.9" height="118.4" fill="#FFFFFF" stroke="none"/>
</clipPath>

<text clip-path="url(#Mask_Mask_1)" writing-mode="lr"><tspan x="0" y="89.55" baseline-shift="0%" font-family="Source Code Pro Semibold" font-size="91" fill="#FFFFFF" xml:space="preserve">ENTER</tspan></text>
</g>
</svg>
