
<svg xmlns="http://www.w3.org/2000/svg" version="1.1" xmlns:xlink="http://www.w3.org/1999/xlink" preserveAspectRatio="none" x="0px" y="0px" width="1000px" height="1000px" viewBox="0 0 1000 1000">
<defs>
<g id="Layer2_0_FILL">
<path fill="#A71212" stroke="none" d="
M 696.2 93.85
Q 684.4 85.4 671.95 77.8 659.45 70.15 645.65 63.6 632.15 57.2 617.4 52 602.4 46.7 586.8 42.3 578.75 40.05 569.9 38.15 553.7 34.75 535 33.3 532.45 33.15 530.2 33.15 525.95 33.15 523.4 31.95 522.35 31.95 521.35 31.95 501.25 31.95 481.1 31.95 478.9 33.15 475 33.15 471.8 33.2 468.2 33.55 461.85 34.2 455.25 35 446.35 36.05 438.05 37.6 429.1 39.25 421.05 41.25 404.8 45.35 390.2 50.45 375 55.75 361.55 62.15 347.7 68.7 335.05 76.05 322.25 83.45 310.55 91.85 298.85 100.3 287.8 109.45 276.8 118.5 266.65 128.45 256.5 138.4 247.45 149.45 238.35 160.5 230 172.15 221.55 183.95 213.95 196.4 206.3 208.9 199.75 222.7 193.35 236.2 188.15 250.95 182.85 265.95 178.45 281.6 176.2 289.65 174.3 298.45 170.85 314.65 169.45 333.35 169.3 335.9 169.3 338.15 169.3 342.4 168.1 344.95 168.1 365.1 168.1 385.2 168.1 386.2 168.1 387.25 169.3 389.8 169.3 394.05 169.3 396.3 169.45 398.85 170.85 417.55 174.3 433.75 176.2 442.6 178.45 450.65 182.85 466.25 188.15 481.25 193.35 496 199.8 509.5 206.35 523.25 214 535.8 221.55 548.25 230.05 560.05 238.35 571.7 247.45 582.75 256.5 593.8 266.65 603.75 276.8 613.7 287.8 622.75 298.9 631.85 310.6 640.3 322.25 648.75 335.05 656.15 347.75 663.5 361.55 670 375.1 676.35 390.25 681.65 404.9 686.8 421.05 690.9 429.1 692.95 438.05 694.65 446.35 696.15 455.25 697.25 461.85 698 468.15 698.85 473.6 699.6 479.75 699.25 481.2 699.15 481.1 700.25 501.25 700.25 521.35 700.25 522.35 700.25 523.4 700.25 523.4 699.9 523.4 699.6 542.95 699.05 559.65 696.1 568.8 694.5 576.75 692.7 593.55 688.95 608.1 683.65 612.05 682.2 616 680.75 630.55 675.45 644.25 669.15 658.1 662.75 670.7 655.3 683.35 647.8 695.2 639.45 707 631.2 717.9 622 728.8 612.8 738.85 602.7 748.95 592.65 758.15 581.75 767.35 570.85 775.6 559 783.9 547.2 791.4 534.55 798.9 521.95 805.3 508.1 811.6 494.4 816.9 479.85 822.35 464.9 826.65 448.75 830.85 433.2 833.25 415.25 834.15 408.5 834.9 401.55 835.65 395 836.05 387.95 836.05 387.6 836.4 387.25 836.4 386.2 836.4 385.2 836.4 365.1 836.4 344.95 835.3 345.05 835.4 343.6 835.75 337.45 835 332 834.15 325.7 833.4 319.1 832.3 310.2 830.8 301.9 829.1 292.95 827.1 284.9 823.05 268.65 817.9 254.05 812.6 238.85 806.2 225.4 799.65 211.55 792.35 198.9 784.9 186.1 776.5 174.4 768.05 162.7 758.9 151.65 749.9 140.65 739.9 130.5 729.95 120.35 718.9 111.3 707.85 102.2 696.2 93.85
M 648.75 463.7
Q 656.7 475.9 661.95 490.85 667.15 505.7 668.75 524.3 670.4 543.45 663.85 554.3 661.15 556.7 658.6 559.25 658.4 559.45 658.4 559.8 645.9 567.4 629.05 570.3 611.55 573.3 592.25 573.8 584.35 574 577.25 574.8 565.65 574.8 554.1 574.8 533.95 574.8 513.85 574.8 493.75 574.8 473.6 574.8 453.5 574.8 433.4 574.8 418.1 574.7 404 573.95 384.45 572.9 367.95 569.1 351.75 565.35 341.3 555.7 340.3 552.95 339 550.65 337.55 548.2 337.1 545.35 335.4 534.35 335.85 521.6 337.05 519.05 337.15 514.75 337.2 512.7 337.55 510.6 339.05 501.6 341.65 493.75 346.6 478.75 354.1 466.25 361.65 453.6 371.65 443.5 381.65 433.4 393.85 425.45 406.05 417.55 420.95 412.05 431.75 408.1 444.95 406.2 450.8 405.35 457.25 404.95 477.35 404.95 497.5 404.95 517.6 404.95 537.7 404.95 542.15 404.95 546.6 404.95 565.45 406.25 580.6 411.25 595.65 416.25 608.1 423.8 620.7 431.45 630.8 441.5 640.85 451.5 648.75 463.7
M 533.05 181.75
Q 547.85 187.15 559.25 195.8 565.1 200.3 570.2 205.4 580.15 215.55 587.5 228.35 594.85 241.15 598.1 257.75 600.2 268.5 599.55 281.55 598.8 295.55 594.95 306.75 589.8 321.7 581.4 333.4 572.95 345.1 561.8 354.05 561.25 354.5 560.9 355.2 548.8 363.2 534.8 369.05 527.4 372.15 518.75 374.15 510.8 376.05 500.2 375.9 496.1 375.85 489.35 375.2 471.3 373.5 457.35 367.3 443.5 361.1 432.6 351.85 421.75 342.65 413.7 330.6 405.65 318.5 401.05 303.25 396.3 287.6 397.2 266.55 397.25 265.5 397.25 264.5 398.15 261.65 398.75 258.4 402.05 241.7 409.35 228.65 416.45 215.85 426.3 205.6 436.15 195.35 449.7 188.65 450.1 188.45 450.5 188.2 463 180.55 480.3 177.25 488.5 175.7 498.85 175.95 518.4 176.4 533.05 181.75 Z"/>
</g>
</defs>

<g transform="matrix( 1, 0, 0, 1, 178.55,701) ">
<clipPath id="Mask_Mask_1">
<rect x="-178.55" y="-2" width="999.1" height="192.55" fill="#FFFFFF" stroke="none"/>
</clipPath>

<text clip-path="url(#Mask_Mask_1)" writing-mode="lr"><tspan x="-39" y="147.6" baseline-shift="0%" font-family="Source Code Pro Semibold" font-size="150" fill="#A71212" xml:space="preserve">ABOUT ME</tspan></text>
</g>

<g transform="matrix( 1, 0, 0, 1, 0,0) ">
<use xlink:href="#Layer2_0_FILL"/>
</g>

<g transform="matrix( 1, 0, 0, 1, 178.55,701) ">
<clipPath id="Mask_Mask_2">
<rect x="-178.55" y="-2" width="999.1" height="192.55" fill="#FFFFFF" stroke="none"/>
</clipPath>

<text clip-path="url(#Mask_Mask_2)" writing-mode="lr"><tspan x="-39" y="147.6" baseline-shift="0%" font-family="Source Code Pro Semibold" font-size="150" fill="#A71212" xml:space="preserve">ABOUT ME</tspan></text>
</g>
</svg>
