
<svg xmlns="http://www.w3.org/2000/svg" version="1.1" xmlns:xlink="http://www.w3.org/1999/xlink" preserveAspectRatio="none" x="0px" y="0px" width="1000px" height="1000px" viewBox="0 0 1000 1000">
<defs>
<g id="Layer1_0_FILL">
<path fill="#A71212" stroke="none" d="
M 683.2 84.6
Q 679.8 82.6 676.6 80.5 663.8 72.25 649.2 65.6 648.35 65.25 647.5 64.85 640.15 61.55 632.8 58.4 630.75 57.5 628.8 56.6 628.35 56.45 628 56.45 625.65 56.35 624.45 55.45 623.45 54.7 622.25 54.25 618.3 52.85 614.55 51.45 613.95 51.2 613.4 50.85 610.1 49.05 605.5 48.45 604.85 48.35 604.3 48.05 601.1 46.1 596.4 45.25 596.05 45.2 595.7 45.2 592.5 45.2 590.8 44.1 588.9 42.85 585.9 42.45 585.5 42.4 585.2 42.4 579.6 42.35 576.1 40.5 575.65 40.3 575.3 40.25 572.35 40.1 570.5 39.1 568.65 38.15 565.5 38.15 560.65 38.15 556.4 36.9 556 36.8 555.65 36.7 551 35.85 546.5 35.2 537.3 33.7 526.85 33.3 526.5 33.3 526.15 33.25 505.8 32.95 485.4 33.1 482.8 33.1 480.5 33.45 475.8 34.15 470.7 34.5 465.95 34.85 460.9 35.35 460.5 35.4 460.15 35.4 456.8 35.55 454.6 36.6 454.2 36.8 453.75 36.85 449.1 37.7 444.7 38.65 443.3 38.9 441.85 39 436.8 39.35 432.85 40.9 429.15 42.3 423.65 42.05 420.9 43.85 417.3 44.85 415.9 45.2 414.5 45.15 411.9 45.05 410.75 46 409 47.4 406.15 47.95 405.7 48.05 405.35 48.05 401.05 48.3 398.4 49.8 397.3 50.5 396.15 50.85 393.9 51.65 391.95 52.4 391.35 52.6 390.7 52.8 388.5 53.65 386.25 54.3 383.9 55 382.15 56 380.3 57.05 378.15 58 374.65 59.45 370.95 60.95 355.9 66.95 342.65 74.7 338.6 77.1 334.55 79.45 321.35 87.3 309.05 96 302.85 100.35 297 105 285.25 114.35 274.55 124.75 263.9 135.15 253.65 146 253.35 146.35 253.05 146.7 248.5 152.75 243.65 158.5 234 169.9 225.9 182.95 224.9 184.65 223.9 186.3 221.85 189.7 219.65 192.85 217.6 195.9 215.8 199.35 214.85 201.3 213.85 203.05 210.05 209.85 206.5 216.85 202.95 223.8 199.85 231.05 199.6 231.7 199.2 232.1 197.95 233.55 197.6 235.9 197.5 236.6 197.15 237 195.85 238.5 195.5 240.85 195.4 241.5 195.05 241.8 194.15 242.4 194.1 243.6 194 246.45 192.6 247.85 192.2 248.15 192.1 248.6 189.8 257.05 187.15 264.75 186.95 265.35 186.6 265.6 185.75 266.3 185.55 267.5 184.2 276.7 180.6 283.65 181.1 287.6 180.05 290 178.9 292.8 178.4 296.25 178.2 297.7 178.05 299.15 177.8 302.15 177.05 304.7 176.1 307.95 175.8 311.75 175.7 312.4 175.45 313 173.8 316.5 174.05 322.3 174.15 324.25 173.9 325.85 173.1 330.5 172.65 335.6 172.55 337 172.6 338.4 172.85 344.35 170.8 347.55 170.8 360.9 170.8 374.25 170.8 376.3 171.15 378.4 171.95 382.65 171.4 388.3 171.05 392.6 172.35 395.25 173.3 397.05 173.4 400.2 173.5 403.5 173.5 407.25 173.45 412.65 174.65 417 175.75 420.95 176.05 426.2 176.05 426.55 176.1 426.95 176.75 431.9 178.05 436 178.15 436.4 178.25 436.75 178.5 438.5 178.95 440.15 179.4 442.15 180.6 443.8 180.6 449.4 182.3 453.5 183.95 457.3 184.9 462.05 185.55 465.2 186.65 468.2 187.3 469.75 187.85 471.35 188.35 472.55 188.8 473.8 190.1 477.5 191.6 481.55 192.9 485.25 194.2 489.35 194.3 489.8 194.45 490.2 200.25 505.6 207.75 519.05 208 519.6 208.3 520.1 210 522.9 211.5 525.9 218.55 539.95 227.35 552.15 227.65 552.65 228.05 553.1 232.2 559.35 236.6 565.45 245.35 577.8 255.8 588.45 256.1 588.8 256.45 589.15 266.25 600.45 277.2 610.55 288.15 620.7 299.9 630.05 311.6 639.4 324.55 647.5 337.5 655.65 351.35 662.75 365.3 669.95 380.15 676.15 383.85 677.7 387.75 679.2 391.55 680.6 395.55 681.7 396.25 681.85 396.6 682.2 399.35 684.75 404.6 685.15 406.75 685.35 408.9 685.9 409.6 686.05 409.85 686.4 411.35 688.2 415.25 687.85 415.55 687.8 415.95 687.85 420.65 688.7 423.65 691 429.3 690.95 433.4 692.55 433.8 692.75 434.2 692.8 440.25 693.65 446.05 694.8 454.6 696.55 463.65 698.1 468.1 698.85 473.5 698.85 476.1 698.9 478.45 699.15 487.9 700.4 498.8 700.5 520.4 700.65 539.55 698.8 549.2 697.9 557.7 695.65 558.15 695.55 558.5 695.45 563.05 694.5 568.3 694.45 569.65 694.45 570.55 694.15 574.7 692.8 578.75 691.5 579.15 691.3 579.55 691.3 585.1 691.3 588.8 689.8 589.35 689.6 589.8 689.25 591.3 687.95 594.25 687.9 596.8 687.85 598.65 687.25 606.9 684.65 614.55 681.65 615 681.5 615.4 681.4 619.85 680.4 623.05 678.25 623.45 678 623.8 677.9 625.2 677.6 626.45 677.2 629.35 676.2 632.3 675 647.35 668.9 660.95 661.4 662.1 660.8 663.2 660.3 666 659.1 668 657.3 668.35 656.9 668.8 656.8 671.15 656.2 672.65 654.8 673.75 653.9 675.1 653.2 682.05 649.55 688.4 645.35 694.7 641.1 700.6 636.5 701.05 636.2 701.45 635.85 713.5 626.9 724.75 617 735.95 607.2 746.35 596.5 747.4 595.45 748.45 594.35 758.9 583.75 768.05 571.8 777.15 559.9 785.45 547.1 793.7 534.35 801.05 520.45 804.65 513.65 807.65 506.25 809.25 502.5 810.95 499.1 811.95 497.1 812.55 494.95 812.7 494.35 813.05 493.9 814.35 492.5 815 490.15 816.1 486.15 817.6 482.35 819.1 478.6 820.45 474.7 821.1 472.55 821.9 470.5 824.75 462.85 826.45 454.25 826.9 451.65 827.85 449.6 829.35 446.05 830.15 441.65 831 437.1 831.95 432.6 832.05 432.15 832.1 431.75 833.1 427.25 833.8 422.7 834.5 418.15 835.1 413.55 835.8 408.9 836.55 404.45 837.25 399.85 837.25 394.6 837.25 393.9 837.65 393.65 838.4 392.95 838.4 391.1 838 370.05 837.95 348.95 837.95 338.5 836.45 329.3 836.05 327 835.4 324.5 834.5 321.2 834.15 316.65 834.15 316.3 834.15 315.95 833.9 310.55 832.8 306.2 832.7 305.8 832.7 305.4 832.75 301.85 831.65 299.75 830.95 298.4 830.25 297 830.25 294.15 829.95 291.4 829.9 291.05 829.9 290.6 829.6 287.1 828.1 285.1 827.8 284.7 827.75 284.3 827.3 281.75 826.9 279.45 826.75 278.4 826.3 277.6 824.8 275.05 824.35 271.05 823.85 266.55 822.1 263.1 821.1 261.2 820.7 259.05 820.4 257.7 819.95 256.4 819.7 255.55 819.3 254.7 817.95 252.05 816.75 249.3 816.55 248.9 816.55 248.5 816.45 246.15 815.55 244.95 813.25 242 812.45 237.35 812.35 236.95 812.1 236.55 810.25 233.1 808.7 229.45 808.5 228.85 808.15 228.4 806.95 226.55 806.5 223.95 806.35 223.25 806.05 222.85 805.1 221.7 804.5 220.35 803.6 218.35 802.55 216.35 799.05 209.5 795.45 202.7 793.55 199.2 791.55 195.9 784.95 185.05 777.7 174.7 769.1 162.25 759.4 150.85 749.75 139.4 739.05 129.05 728.35 118.7 716.9 109.05 714 106.65 711.15 104.25 699.65 94.75 686.5 86.65 684.9 85.6 683.2 84.6
M 711.6 274.45
Q 718.15 279.15 724.2 284.35 724.2 287.55 724.2 290.65 724.2 311.75 724.2 332.8 724.2 353.9 724.2 374.95 724.2 396.05 724.2 417.1 724.2 438.15 724.2 459.2 724.2 480.3 724.2 501.35 724.2 522.4 724.2 543.5 716.5 543.5 708.75 543.5 687.65 543.5 666.65 543.5 645.55 543.5 624.5 543.5 603.45 543.5 582.35 543.5 561.3 543.5 540.2 543.5 519.15 543.5 498.05 543.5 477 543.5 455.9 543.5 434.85 543.5 413.75 543.5 392.75 543.5 371.65 543.5 350.6 543.5 329.55 543.5 308.45 543.5 287.4 543.5 287.4 540.35 287.4 537.15 287.4 516.1 287.4 495 287.4 473.95 287.4 452.9 287.4 431.85 287.4 410.8 287.4 389.7 287.4 368.65 287.4 347.55 287.4 326.5 287.4 305.4 287.4 284.35 287.4 284 287.4 283.65 296.75 277.25 305.8 270.5 317.8 261.45 329.85 252.45 341.9 243.4 353.9 234.2 365.75 225.1 378.05 216.35 390.4 207.55 402.1 198.35 402.6 197.95 403 197.65 414.7 188.35 426.95 179.45 439.15 170.65 451.25 161.75 454.35 159.45 457.35 157.25 469.3 148.05 481.45 139.25 487.55 134.8 493.3 130.05 496.45 127.5 500.1 125.5 500.5 125.3 500.9 124.9 503.15 122.6 505.8 120.75 518 129.6 529.9 138.6 533 140.95 535.95 143.2 547.95 152.3 559.95 161.3 563.05 163.55 566.1 165.8 578.1 174.8 590.3 183.65 602.5 192.5 614.2 201.85 614.65 202.2 615.1 202.5 626.95 211.65 639.2 220.5 651.45 229.35 663.35 238.4 675.3 247.55 687.4 256.65 699.4 265.6 711.6 274.45
M 374.05 337.3
Q 372.35 336.3 370.7 335.35 363.95 331.4 358.05 326.8 357.6 326.5 357.15 326.2 350.85 322 344.75 317.7 344.25 317.35 343.85 317 342.7 316.1 341.4 315.3 334.8 311.4 328.55 307.25 315.85 298.7 303.55 290 303.55 289.6 303.4 289.5 302.8 289.25 302.15 289.25 302.15 310.35 302.15 331.4 302.15 352.5 302.15 373.55 302.15 394.6 302.15 415.7 302.15 436.75 302.15 457.8 302.15 478.85 302.15 499.95 302.15 511.2 302.8 522.35 302.8 522.4 303.4 522.15 303.55 522.05 303.55 521.75 314.15 513.75 324.55 505.55 336.4 496.3 348.3 487.05 352.65 483.75 357.05 480.45 369 471.35 380.75 462.05 392.6 452.75 404.6 443.65 407.6 441.4 410.55 439.2 422.55 430 434.3 420.75 446.15 411.5 458.1 402.4 461.15 400.15 463.65 397.4 459.4 394.95 455.65 392.1 455.25 391.8 454.75 391.5 442.6 382.65 429.5 374.55 427.85 373.55 426.15 372.55 419.4 368.65 413.5 364.05 413.1 363.7 412.6 363.35 406.45 359.1 400.25 354.9 399.75 354.55 399.3 354.25 387.1 345.45 374.05 337.3
M 467.1 230.9
Q 469.35 227.85 472.5 225.65 484.85 217.05 504.4 215.7 515.6 214.9 524.1 216.75 541.55 220.45 550.7 232.4 555.25 238.4 557.6 246.5 558.3 248.75 558.75 251.3 559.6 255.55 558.85 261.15 558.8 261.55 558.75 261.9 558.25 266.95 556.9 270.95 551.65 286.7 538.2 294.4 537.4 294.85 536.55 295.1 533.35 296.1 531.8 294.9 530.2 293.95 530.65 291.4 530.75 290.65 530.85 289.95 531.3 286.7 532 283.65 532.15 282.95 532.25 282.2 533.5 275.2 535 268.8 536.95 260.05 538.9 251.35 540.85 242.8 542.3 233.8 539.15 233.8 535.95 233.8 532.85 233.8 529.75 233.3 521.95 232.05 522.65 238.7 522.3 239.05 522.15 239.5 521.95 240.1 521.7 240.2 520.55 240.8 520.2 239.95 519.2 237.9 517.65 236.65 514.6 234.15 510.1 232.85 507.15 232.05 503.7 231.95 493.25 231.75 486.65 235.6 486.15 235.85 485.7 236.25 484.55 237.2 483.25 237.9 479.85 239.8 477.3 242.55 467.2 253.5 463.8 271.05 461.9 281.15 464.1 290.05 466.25 298.55 471.8 303.6 473.5 305.1 475.3 306.45 481.3 310.95 492.45 310.45 494.55 310.35 496.6 309.9 505.05 308.2 510.05 302.6 510.35 302.6 510.4 302.75 512.75 307.95 517.7 310.35 528.4 311.1 536.1 309.2 544.1 307.15 549.5 302.85 550.7 301.9 551.9 300.9 563.35 291.35 569.4 276.1 570.8 272.4 571.05 267.5 571.1 266.75 571.5 266.5 572.25 265.85 572.3 264 572.4 252.85 570.6 244.3 570.05 241.85 569.45 239.95 568.95 238.7 568.6 237.85 565.55 230.15 561 224.15 554.2 215.2 543.85 209.65 543 209.2 542.2 208.85 534.6 205.7 526.15 203.8 517.35 201.85 506.5 202.2 496.35 202.5 488.15 204.65 471.2 209 459.9 218.7 448.55 228.5 442.2 243.45 441.85 244.3 441.6 245.2 440.1 249.25 438.65 253.3 437.3 256.95 436.9 261.85 436.65 264.35 435.55 266.1 435.55 270.3 435.7 274.5 436.2 294.95 443.65 308.75 450.95 322.35 463.6 330.8 464 331.05 464.45 331.25 478.25 338.55 496.7 341.05 506.15 342.25 517.05 341.85 537.3 341.15 550.95 333.8 552.85 332.8 554.75 331.7 568.05 324.1 575.35 310.35 575.35 309.95 575.3 309.95 567.6 309.65 559.85 309.65 556.35 314.9 550.95 318.4 545.7 321.8 539.35 324.05 523.7 329.65 501.6 328.3 500.2 328.25 498.75 328.05 489.35 326.85 481.3 324.15 479.3 323.5 477.5 322.7 462.7 316.2 455.5 302.5 451.85 295.5 449.95 287.05 448.9 282.55 448.9 277.35 448.9 266.75 451.15 258.4 455.65 241.95 466.5 231.7 466.85 231.3 467.1 230.9
M 481.9 273.1
Q 483.1 272.2 483 269.6 482.95 269.25 483.05 268.85 484.6 260.05 488.65 253.95 490.8 250.7 493.9 248.6 496.8 246.6 500.15 245 503.35 245 506.5 245 506.85 245 507.2 245 518.85 249.15 517.4 266.05 517.4 266.45 517.3 266.85 515.85 276.15 512.65 283.55 509.5 290.9 503.1 295 499.9 297.05 495.25 297.3 490.5 297.55 487.9 295.2 487.55 294.9 487.15 294.55 483.65 291.45 482.5 285.75 481.45 280.25 481.9 273.1
M 695.95 530.3
Q 695.1 529.5 694 528.75 683.05 520.4 672.25 511.9 660.4 502.6 648.45 493.55 645.45 491.3 642.5 489.1 636.35 484.55 630.5 479.95 618.7 470.6 606.95 461.35 595.15 452.05 583.15 443 580.15 440.75 577.2 438.5 565.15 429.4 553.4 420.1 541.6 410.8 529.8 401.45 518.05 392.15 505.8 383.4 495 391.1 484.55 399.35 472.75 408.6 460.95 417.9 449.15 427.2 437.15 436.25 434.15 438.5 431.25 440.8 419.2 449.9 407.45 459.2 395.7 468.45 383.65 477.55 380.65 479.85 377.7 482 371.5 486.45 366.05 491.5 365.65 491.9 365.3 492.15 353 500.95 341.25 510.25 329.4 519.55 317.55 528.75 317.25 528.75 317.15 528.9 316.65 529.95 315.45 530.15 315.45 530.55 315.45 530.85 317.1 532.05 320.4 532 341.45 531.55 362.5 531.55 383.6 531.55 404.65 531.55 425.75 531.55 446.8 531.55 467.9 531.55 488.95 531.55 510 531.55 531.05 531.55 552.15 531.55 573.2 531.55 594.25 531.55 615.35 531.55 636.4 531.55 657.5 531.55 676.5 531.55 695.4 531.2 695.75 531.2 696.15 530.85 696.15 530.55 695.95 530.3
M 708.05 290
Q 703.65 292.95 699.4 295.95 697.85 297 696.4 298.05 684.15 306.85 671.05 314.9 667.9 316.85 664.95 319.1 664.5 319.5 664.1 319.8 663 320.75 661.7 321.5 655.05 325.45 648.8 329.55 636.05 338.1 623.5 346.45 610.85 355 598.35 363.5 585.85 372.15 573.2 380.55 560.6 389 547.95 397.4 550.5 400.15 553.5 402.4 565.45 411.45 577.3 420.75 589.05 430 601.05 439.2 604 441.4 607 443.65 619 452.75 630.75 462.05 642.6 471.35 654.55 480.45 658.95 483.75 663.3 487.05 675.2 496.3 687.05 505.55 697.5 513.7 708.05 521.75 708.05 522.05 708.2 522.15 708.75 522.4 708.8 522.3 709.45 518.55 709.45 514.7 709.45 493.6 709.45 472.6 709.45 451.5 709.45 430.45 709.45 409.35 709.45 388.3 709.45 367.2 709.45 346.15 709.45 325.1 709.45 304 709.45 298.8 710 293.55 710.35 289.8 708.05 289.25 708.05 289.6 708.05 290 Z"/>
</g>
</defs>

<g transform="matrix( 1, 0, 0, 1, 178.55,701) ">
<clipPath id="Mask_Mask_1">
<rect x="-178.55" y="-2" width="999.1" height="192.55" fill="#FFFFFF" stroke="none"/>
</clipPath>

<text clip-path="url(#Mask_Mask_1)" writing-mode="lr"><tspan x="6" y="147.6" baseline-shift="0%" font-family="Source Code Pro Semibold" font-size="150" fill="#A71212" xml:space="preserve">CONTACT</tspan></text>
</g>

<g transform="matrix( 1, 0, 0, 1, 0,0) ">
<use xlink:href="#Layer1_0_FILL"/>
</g>
</svg>
