
<svg xmlns="http://www.w3.org/2000/svg" version="1.1" xmlns:xlink="http://www.w3.org/1999/xlink" preserveAspectRatio="none" x="0px" y="0px" width="1000px" height="1000px" viewBox="0 0 1000 1000">
<defs>
<g id="Layer1_0_FILL">
<path fill="#A71212" stroke="none" d="
M 688.45 92.55
Q 671.8 81.05 653.65 71.2 647.75 68.05 641.95 65.35 622.5 56.35 602.15 49.35 580.95 41.95 557.75 37.5 533.95 33 507.55 31.8 478.8 30.55 454.45 33.9 429.6 37.3 407.25 43.45 385.7 49.4 366.05 57.45 346 65.65 328.4 76 310.75 86.35 294.75 98.25 278.65 110.2 264.5 124.05 250.4 137.95 237.75 153.2 225.05 168.55 213.95 185.65 208.45 194.15 203.6 203.35 193.8 221.75 185.75 241.3 177.5 261.4 171.55 283.6 165.7 305.55 163.3 331.1 162.85 335.85 162.9 340.6 163.05 348.45 161.4 353.85 160.65 382.55 163.95 407 167.35 431.9 173.45 454.2 179.4 475.75 187.45 495.4 195.7 515.45 206.1 533.05 216.5 550.55 228.3 566.65 240.1 582.9 254.05 597 267.95 611.05 283.2 623.7 298.6 636.4 315.6 647.55 324.1 653.1 333.3 657.95 351.8 667.65 371.25 675.65 391.35 684 413.6 689.9 435.6 695.7 461.15 698.25 473.95 699.55 487.65 699.8 516 700.4 540.75 696.8 564.8 693.3 587.05 687.05 608.55 681.05 628.2 672.9 648.15 664.7 665.35 654 669.8 651.25 674.2 648.35 691.1 637.45 706.55 624.9 722 612.4 735.75 598.15 749.5 583.9 761.6 568.05 773.75 552.25 784.15 534.8 794.65 517.15 803.25 497.4 811.6 478.2 817.65 456.3 823.7 434.25 827.15 409.8 830.55 385.1 829.9 356.7 829.3 329.55 825.15 306.3 820.9 281.95 813.8 261.6 806.4 240.55 797.25 221.35 788.3 202.6 777.45 185.65 774.6 181.25 771.5 177 759.85 160.85 747.05 145.55 734.4 130.35 719.65 117.15 704.9 103.9 688.45 92.55
M 669.15 354.5
Q 672.3 357.5 674.5 361.45 674.5 361.95 674.75 362.15 684.6 371.3 693.5 381.35
L 693.5 381.8
Q 676.2 381.65 661.25 383.25 661.25 383.75 661.05 384.15 660.75 384.7 660.75 385.15 660.3 409.85 660.3 434.5 660.3 462.45 660.3 490.4 660.3 518.45 660.3 546.4 658.4 546.4 656.5 546.4 628.55 546.4 600.5 546.4 572.55 546.4 544.6 546.4 544.6 536.9 544.6 527.45 544.6 499.45 545.1 471.45 545.25 463.75 543.6 458.2 543.15 457.75 542.65 457.75 535.05 457.25 527.5 457.25 499.55 457.25 471.55 456.75 463.8 456.65 458.25 458.2 456.7 469.9 456.9 483.85 457.3 511.8 457.8 539.75 457.85 544.45 457.3 545.45 456.1 547.1 452.6 547.05 424.6 546.4 396.6 546.4 368.65 546.4 340.65 546.4 340.65 527.45 340.65 508.45 340.65 480.5 340.65 452.55 340.65 424.5 341.2 396.55 341.4 388.75 339.7 383.25 334.6 381.7 327.35 382 320.7 382.35 314.15 383 308.1 383.6 306.5 380.45 321.35 367.25 335.5 353.45 349.7 339.65 363.85 325.85 375.85 314.1 387.15 301.7 387.15 301.25 387.15 300.7 387.15 300.25 387.15 299.8 402.45 287.1 416 272.7 419.4 269.05 423 265.5 436.95 251.4 451 237.55 465.15 223.7 479.65 210.2 485.25 204.95 491.1 200 493.7 197.75 495.8 194.9 497.45 192.45 500.95 191.65 506.65 193.1 508.95 198.15 509.5 199.25 511 200 511.4 200.2 511.85 200.6 526.65 213.9 540.5 228.05 545.65 233.3 550.9 238.45 558.05 245.55 565.15 252.65 579.2 266.6 593.45 280.35 607.75 294 621.6 308.1 635.5 322.2 649.6 336.05 656.1 342.45 662.75 348.5 665.95 351.5 669.15 354.5
M 625.2 203.45
Q 630.1 203.2 631.85 204 634.85 208.1 634.6 216.35 633.75 244.35 632.85 272.3 632.85 272.75 633.45 276.1 634 279.15 630.9 278.95 626.8 274.95 622.75 270.95 608.6 257.1 594.85 242.9 594.85 242.45 594.6 242.2 591.9 239.9 589.7 237.05 589.45 236.65 589.15 236.25 589.15 235.8 589.2 235.35 589.25 234.35 589.25 233.35 589.65 216.9 589.15 204.95 593.35 202.75 601.55 203.25 613.35 204 625.2 203.45 Z"/>
</g>
</defs>

<g transform="matrix( 1, 0, 0, 1, 178.55,701) ">
<clipPath id="Mask_Mask_1">
<rect x="-178.55" y="-2" width="999.1" height="192.55" fill="#FFFFFF" stroke="none"/>
</clipPath>

<text clip-path="url(#Mask_Mask_1)" writing-mode="lr"><tspan x="141" y="147.6" baseline-shift="0%" font-family="Source Code Pro Semibold" font-size="150" fill="#A71212" xml:space="preserve">HOME</tspan></text>
</g>

<g transform="matrix( 1, 0, 0, 1, 0,0) ">
<use xlink:href="#Layer1_0_FILL"/>
</g>
</svg>
