
<svg xmlns="http://www.w3.org/2000/svg" version="1.1" xmlns:xlink="http://www.w3.org/1999/xlink" preserveAspectRatio="none" x="0px" y="0px" width="1000px" height="1000px" viewBox="0 0 1000 1000">
<defs>
<path id="Layer2_0_1_STROKES" stroke="#A71212" stroke-width="5" stroke-linejoin="round" stroke-linecap="round" fill="none" d="
M 847.2 151.9
L 847.2 151.85 847.15 151.9 847.2 151.9 797.525 797.525 797.55 797.55 797.525 797.55 499.55 898.85 201.525 797.55 201.525 797.525 151.9 151.9 847.15 151.9
M 562.95 436.1
L 562.95 539.05 718.775 512.975 708.5 646.85 708.6 646.85 704.2 704.05 704.1 704.1 605.925 736.925
Q 557.4875 753.6625 509.05 770.4
L 509.05 682.5 562.95 664.025 562.95 682.975 650.95 652.8 655.725 590.7 509.05 615.25 509.05 362 509.05 361.9 513.475 361.95 637.05 362 637.15 361.9 673.8 361.9 679.175 361.95 730.4 361.9 725.775 422 562.95 422 562.95 434.9
M 679.175 361.95
L 673.8 362 637.05 362
M 673.8 361.9
L 673.8 362
M 704.1 704.1
L 708.5 646.85
M 513.475 361.95
L 509.05 362
M 294.9 704.15
L 490.05 770.5 490.05 362 325.3 362 329.925 422.1 436.15 422.1 436.15 682.5 370.625 660.2 369.575 646.95 290.5 646.95 294.9 704.15 Z
M 903.15 93.95
L 93.95 93.95 151.85 847.2 499.55 963.05 847.2 847.2 905.125 93.925
M 797.525 797.55
L 797.525 797.525"/>
</defs>

<g transform="matrix( 1, 0, 0, 1, 0,0) ">
<use xlink:href="#Layer2_0_1_STROKES"/>
</g>

<g transform="matrix( 1, 0, 0, 1, 14.6,145) ">
<clipPath id="Mask_Mask_1">
<rect x="-14.6" y="-2" width="999.95" height="154.85" fill="#FFFFFF" stroke="none"/>
</clipPath>

<text clip-path="url(#Mask_Mask_1)" writing-mode="lr"><tspan x="413.35" y="118.1" baseline-shift="0%" font-family="Source Code Pro Semibold" font-size="120" fill="#A71212" xml:space="preserve">JS</tspan></text>
</g>
</svg>
