
<svg xmlns="http://www.w3.org/2000/svg" version="1.1" xmlns:xlink="http://www.w3.org/1999/xlink" preserveAspectRatio="none" x="0px" y="0px" width="1000px" height="1000px" viewBox="0 0 1000 1000">
<defs>
<g id="Layer1_0_FILL">
<path fill="#A71212" stroke="none" d="
M 654.95 576.6
Q 658.95 567.7 660.35 558.6 663.65 538.45 654.55 526.85 645.3 515.25 624.95 515.05
L 578.5 515.05 552.9 639.35 577 639.35 583.8 606.4 604.55 606.4
Q 615.1 606.4 625 603.95 634.85 601.6 643.6 592.5 650.8 585.4 654.95 576.6
M 598.5 534.95
L 598.55 534.8 598.5 534.95
Q 600.359765625 534.95 602.25 534.95 604 534.95 606 534.8 619.95 534.6 629.15 537.4 638.5 540.2 635.25 558.4 631.25 580.1 620.15 583.65 609.1 587.2 592.45 587 591.25 587 590.1 587 589 587 587.85 586.85
L 598.5 534.95 598.5 534.95
M 493.75 535.15
L 513 535.3
Q 522.1 535.3 524.85 538.95 527.55 542.6 525.75 551.3
L 514.4 606.4 538.7 606.4 550.6 548.65
Q 554.45 529.3 545.7 522.35 536.95 515.4 519.35 515.05
L 497.9 515.05 504.7 482 480.75 482 455.15 606.4 479.1 606.4 493.75 535.15
M 444.3 526.85
Q 435.05 515.25 414.7 515.05
L 368.25 515.05 342.65 639.35 366.75 639.35 373.55 606.4 394.3 606.4
Q 404.85 606.4 414.75 603.95 424.6 601.6 433.35 592.5 440.55 585.4 444.7 576.6 448.7 567.7 450.1 558.6 453.4 538.45 444.3 526.85
M 388.25 534.95
L 388.3 534.8 388.25 534.95
Q 390.109765625 534.95 392 534.95 393.75 534.95 395.75 534.8 409.7 534.6 418.9 537.4 428.25 540.2 425 558.4 421 580.1 409.9 583.65 398.85 587.2 382.2 587 381 587 379.85 587 378.75 587 377.6 586.85
L 388.25 534.95 388.25 534.95 Z"/>
</g>

<path id="Layer1_0_1_STROKES" stroke="#A71212" stroke-width="5" stroke-linejoin="round" stroke-linecap="round" fill="none" d="
M 847.2 151.9
L 847.2 151.85 847.15 151.9 847.2 151.9 797.525 797.525 797.55 797.55 797.525 797.55 499.55 898.85 201.525 797.55 201.525 797.525 151.9 151.9 847.15 151.9
M 903.15 93.95
L 93.95 93.95 151.85 847.2 499.55 963.05 847.2 847.2 905.125 93.925
M 797.525 797.55
L 797.525 797.525"/>

<path id="Layer1_0_2_STROKES" stroke="#A71212" stroke-width="15" stroke-linejoin="round" stroke-linecap="round" fill="none" d="
M 764.65 575.15
Q 764.65 626.55 686.8 662.85 608.9 699.25 498.7 699.25 388.5 699.25 310.65 662.85 232.75 626.55 232.75 575.15 232.75 523.7 310.65 487.35 388.5 451 498.7 451 608.9 451 686.8 487.35 764.65 523.7 764.65 575.15 Z"/>
</defs>

<g transform="matrix( 1, 0, 0, 1, 0,0) ">
<use xlink:href="#Layer1_0_FILL"/>

<use xlink:href="#Layer1_0_1_STROKES"/>

<use xlink:href="#Layer1_0_2_STROKES"/>
</g>

<g transform="matrix( 1, 0, 0, 1, 14.6,145) ">
<clipPath id="Mask_Mask_1">
<rect x="-14.6" y="-2" width="999.95" height="154.85" fill="#FFFFFF" stroke="none"/>
</clipPath>

<text clip-path="url(#Mask_Mask_1)" writing-mode="lr"><tspan x="377.35" y="118.1" baseline-shift="0%" font-family="Source Code Pro Semibold" font-size="120" fill="#A71212" xml:space="preserve">PHP</tspan></text>
</g>
</svg>
