
<svg xmlns="http://www.w3.org/2000/svg" version="1.1" xmlns:xlink="http://www.w3.org/1999/xlink" preserveAspectRatio="none" x="0px" y="0px" width="1000px" height="1000px" viewBox="0 0 1000 1000">
<defs>
<g id="Layer26_0_FILL">
<path fill="#A71212" fill-opacity="0.996078431372549" stroke="none" d="
M 662.8 395.5
Q 662.15 392.5 661.5 389.95 658.65 379.05 653.8 370.25 649 361.5 641.85 355.05 634.75 348.65 623.95 345.75 622.55 345.4 621.15 345.25 617.75 344.9 615.2 344 614.95 344 614.75 344 610.85 344 606.95 344 607 344.75 606 344.65 603.95 344.45 601.9 344.8 599.8 345.15 597.3 345.45 592.25 346.1 588 347.35 582.45 349 577.5 350.95 567.85 354.8 559.05 359.65 550.35 364.5 542.15 369.85 538 372.6 533.95 375.35 525.95 381 518.8 387.4 516.95 389 515.15 390.7 508.2 397.3 500.65 403.35 493.65 396.8 486.4 390.45 482.75 387.2 478.8 384.2 471.2 378.3 463.2 372.75 459.1 369.9 454.8 367.2 446.55 362 437.55 357.55 428.35 353.05 418.3 349.5 408.3 346 395.75 344.9
L 395.75 344.7
Q 393.95 344.45 392.1 344.45 389.05 344.65 386.1 344.85 373.4 345.8 365 351 356.65 356.2 350.95 364 345.2 371.9 341.55 382.05 338.05 391.85 336.65 404.25 336.3 407.15 336.3 410.25 336.3 413.1 335.5 414.85 335.5 417.6 335.5 420.4 335.5 420.6 335.5 420.85 335.25 420.85 335.05 420.85 335.05 426.1 335.25 431.4
L 335.5 431.4
Q 335.5 433 335.6 434.65 336.2 447.5 337.9 459.45 339.55 471.25 341.75 482.5 342.35 485.5 343.2 488 344.1 490.7 344.25 494 343.3 494.2 342.45 494.5 331.95 497.55 321.85 501.2 312 504.75 302.45 508.85 292.95 512.85 284.35 517.75 275.65 522.65 267.65 528.35 259.75 533.95 252.65 540.4 245.4 546.95 240.05 555.45 239.35 556.55 238.7 557.65 233.8 566.4 231.05 577.25 230.55 591.35 234.7 601 236.7 605.65 239.2 610.2 239.8 611.3 240.5 612.35 245.9 620.6 252.9 627.15 259.95 633.7 267.7 639.45 271.7 642.4 275.8 645.2 283.9 650.7 293.1 655.15 295.35 656.25 297.45 657.55 297.75 657.75 298.15 657.9 307.25 662.35 317 666.2 326.65 670.05 337.3 673.1 340.55 674.1 343.8 675.25 344.1 676.5 343.5 678.95 340.75 689.9 338.8 701.45 336.8 713.1 335.7 725.8 335.5 728.15 335.5 730.9 335.5 731.8 335.5 732.75 335.25 732.75 335.05 732.75 335.05 735.95 335.05 739.15 335.05 739.4 335.05 739.65 335.05 741.25 335.05 742.85 335.05 743.1 335.05 743.3 335.05 746.75 335.25 750.2
L 335.5 750.2
Q 335.9 763.4 338.3 774.25 339.65 780.15 341.4 785.2 344.85 795.35 350.35 803.35 355.9 811.45 364.45 816.55 368.75 819.1 373.8 820.75 380.3 822.95 388.4 823.35 388.4 823.6 388.4 823.8 392.3 823.8 396.2 823.8 396.45 823.8 396.7 823.8 396.7 823.6 396.7 823.35 408.85 821.95 419.15 818.5 429.2 815.15 438.35 810.6 447.35 806.15 455.8 800.95 457.85 799.65 460 798.3 468.35 792.9 476.25 787 484 781.15 491.2 774.85 496.65 770.1 501.6 764.95 508.45 771.65 515.8 777.85 523.15 784.1 530.8 789.95 534.75 792.95 538.75 795.85 546.7 801.7 555.7 806.7 564.3 811.5 573.8 815.45 583.45 819.5 594.5 822.05 597.45 822.7 600.9 823.25 601.4 823.35 602.3 823.25 605.2 823.05 606.95 823.8 610.85 823.8 614.75 823.8 614.95 823.8 615.2 823.8 615.2 823.6 615.2 823.35 627.9 822.5 636.15 817.3 636.8 816.9 637.35 816.55 645.45 811.05 651 802.9 656.45 794.9 660 784.8 663.55 774.65 665.3 762.25 666.1 756.5 666.45 749.75 667.15 736.65 666.05 723.1 665.3 713.95 664.15 704.7 663.4 698.8 662.35 693.1 660.6 683.45 658.45 674.3 661.95 672.75 665.8 671.5 676.1 668.25 685.95 664.35 688.25 663.4 690.7 662.4 700.3 658.4 709.3 653.65 713.7 651.35 718.15 648.8 726.75 643.95 734.6 638.15 742.4 632.4 749.3 625.8 756.25 619.15 761.55 610.85 764.2 606.6 766.35 601.95 770.65 592.6 769.95 578.6 769.75 575.65 769.05 573.05 766.1 562.25 760.4 554.35 754.7 546.55 747.75 539.95 740.75 533.35 732.65 527.8 724.65 522.35 715.85 517.55 707.05 512.75 697.6 508.55 688.25 504.4 678.25 500.8 668.35 497.2 657.55 494.25 657.5 494.2 657.5 494 657.05 491.65 658.05 488.75 659 486 659.65 483 662 471.95 663.6 459.95 665.05 449.3 665.35 437.4 666.15 436.35 665.85 434.15 665.8 433.95 665.8 433.7 665.8 429.35 665.7 424.95 665.65 422.35 665.55 419.9 665.2 406.5 662.8 395.5
M 697.65 533.8
Q 706.75 538.4 715.05 543.6 723.5 548.95 730.9 555.3 738.25 561.6 743.15 570.3 743.35 570.6 743.5 570.85 747.95 576.75 747.05 587.8 747 588.05 746.9 588.35 743.7 598.75 737.15 605.75 730.55 612.75 722.8 618.6 715.1 624.45 706.4 629.45 697.85 634.35 688.45 638.65 679.2 642.85 669.15 646.55 661.05 649.55 652 651.75 648.45 641.75 644.75 631.65 641.05 621.75 637.05 611.8 633.2 602.25 628.9 592.95 626.75 588.45 625 583.65 624.85 583.2 624.85 582.75 629.45 573.75 633.5 564.05 635.5 559.3 637.45 554.3 641.25 544.65 644.95 534.55 648.05 525.9 650.6 516.5 655 517.2 658.9 518.45 669 521.8 678.8 525.55 688.7 529.3 697.65 533.8
M 368.7 378.1
Q 373.95 369.8 385.65 368 391.85 367 398.45 368.2 409.8 370.2 419.3 374.25 428.9 378.3 437.35 383.3 445.95 388.35 453.85 394 461.8 399.65 469.1 405.9 476.45 412.15 483.5 418.65 484.1 419.2 484.55 419.9 478.25 427.2 471.85 434.4 465.5 441.6 459.5 449.2 453.55 456.8 447.85 464.6 443.45 470.6 439 476.5 436.45 477.4 433.1 477.8 427.1 478.4 420.65 479.05 408.55 480.3 397.05 482.1 385.1 484 374.1 486.45 370.45 487.3 366.75 488 365.35 482.55 364.25 476.9 363.1 471 362.05 465.4 359.9 453.7 358.6 441.1 358.15 437 358.5 431.85 358.5 431.65 358.5 431.4 358.5 426.1 358.5 420.85 358.5 420.6 358.5 420.4 358.5 417.15 358.5 413.9 359.3 412.2 359.4 409.35 359.65 403.1 360.85 397.75 363.5 386.45 368.7 378.1
M 572.1 378.8
Q 581.2 374.15 590.95 370.5 591.75 370.2 592.55 369.9 597.35 368 603.7 367.2 610.15 366.35 616.55 367.65 622.2 368.75 626 371.9 627.85 373.45 629.45 375.3 635.75 382.6 638.75 393.2 641.75 403.7 642.6 416.7 643.15 425.1 642.8 434.65 642.6 434.65 642.35 434.65 642.3 436.25 642.35 437.85 642.35 438.1 642.35 438.3 642.3 439.9 642.25 441.55 641.45 454.2 639.4 465.85 637.4 477.3 635 488.45 634 488.1 632.75 487.8 621.8 485.25 610.15 483.3 598.6 481.35 586.65 479.75 574.75 478.1 562.3 476.95 561.1 474.5 559.5 472.4 553.65 464.65 547.7 456.95 541.8 449.35 535.75 441.8 529.75 434.3 523.25 427.2 520 423.6 517.2 419.45 524.55 413.25 531.7 406.85 535.35 403.55 539.15 400.4 546.55 394.3 554.8 388.85 563.05 383.4 572.1 378.8
M 286.35 543.3
Q 294.55 537.9 303.7 533.4 312.7 528.9 322.55 525.05 332.2 521.25 342.75 517.95 346.4 516.8 350.7 516.05 354.05 526.3 357.55 536.3 361.1 546.3 364.9 556.1 368.7 565.9 372.85 575.1 374.95 579.65 376.9 584.15 372.75 593.55 368.75 603.05 364.75 612.7 361.05 622.4 357.25 632.35 353.9 642.55 352.2 647.75 350.2 652.7 348.95 653.05 346.55 652.2 336.4 648.75 326.4 645.1 316.6 641.5 307.45 637 298.4 632.5 290.2 627.25 281.9 621.9 274.2 616 270.25 613 266.8 609.55 260.05 602.8 256.15 593 254.45 588.8 254.2 583.2 254.1 581.15 254.1 579.05 257.5 568.95 264.05 561.9 270.6 554.85 278.25 549.05 282.2 546.05 286.35 543.3
M 494.25 443.4
Q 497.75 440.25 500.65 436.45 507.5 443.2 513.6 450.7 519.65 458.2 525.7 465.65 526.65 466.8 527.6 468 530.1 470.95 532.4 474.2 529.75 475 525.95 474.75 513.15 473.9 499.3 473.95 485.5 474 472.6 474.85 470.2 475 468.9 474.2 475.3 467 480.9 459.05 481.1 458.8 481.35 458.55 487.9 451.55 493.8 443.85 494 443.6 494.25 443.4
M 536.1 498.1
Q 542.75 498.3 549.4 498.55 549.65 498.55 549.9 498.55 555.25 506.8 560.6 515.05 565.95 523.4 571.05 532.15 576.05 540.7 580.95 549.3 585.95 557.95 590.75 566.9 595.1 575.05 599.1 583.7 594.9 593.05 590.25 601.8 587.8 606.4 585.4 610.85 580.5 619.8 575.55 628.5 570.6 637.3 565.4 645.55 562.65 649.85 559.85 653.95 554.85 661.35 550.35 669.25 544.75 669.65 538.85 669.7 538.6 669.7 538.35 669.7 538.15 669.7 537.9 669.7 536.3 669.7 534.7 669.7 534.7 669.95 534.7 670.15 534.45 670.15 534.2 670.15 531 670.15 527.8 670.15 527.55 670.15 527.3 670.15 525.5 670.15 523.65 670.15 523.65 670.4 523.65 670.65 523.45 670.65 523.2 670.65 516.3 670.65 509.4 670.65 509.15 670.65 508.95 670.65 499.95 670.65 491 670.65 490.75 670.65 490.55 670.65 483.4 670.6 476.25 670.65
L 476.25 670.4
Q 474.2 670.15 472.1 670.15 471.9 670.15 471.65 670.15 461 670.2 451.4 669.25 446.4 661.2 441.1 653.3 435.75 645.15 430.75 636.55 425.8 627.95 420.9 619.4 415.9 610.7 411.25 601.7 406.6 592.85 402.2 583.7 407 574.9 411.65 565.85 416.25 556.8 421.2 547.85 426 539.15 431.15 530.75 436.3 522.3 441.6 513.95 446.65 506.2 451.9 498.55 458.5 498.25 465.2 498.1 465.45 498.1 465.7 498.1 467.55 498.1 469.35 497.85
L 469.35 497.65
Q 472.1 497.65 474.9 497.65 475.1 497.65 475.35 497.65 478.1 497.65 480.85 497.45 480.9 497.45 480.9 497.2 489.15 497.2 497.45 497.2 497.65 497.2 497.9 497.2 500.4 497.2 502.95 497.2 503.15 497.2 503.4 497.2 511.7 497.2 520 497.2 520.2 497.2 520.4 497.2 522.4 498 525.5 497.7 525.75 497.65 525.95 497.65 528.95 497.65 531.95 497.65 532.15 497.65 532.4 497.65 533.45 498.45 535.6 498.15 535.85 498.1 536.1 498.1
M 608.8 506.15
Q 619.05 508.05 628.55 510.55 625.55 521.15 622 530.9 618.3 541.2 614.15 550.7 612.8 553.9 611.5 557 606.55 548.4 601.75 539.6 596.85 530.7 591.65 522.1 586.5 513.7 581.3 505.25 580.8 504.45 580.3 503.6 579.75 502.7 579.35 501.8 582.55 502.05 585.35 502.4 597.55 504 608.8 506.15
M 373.25 510.05
Q 378.95 508.9 384.7 507.7 396.15 505.4 408.2 503.55 414.9 502.5 422 501.8 416.9 510.3 411.8 518.6 410.4 520.8 409.15 522.95 404.1 531.5 399.4 540.2 396 546.45 392.75 552.5 391.6 554.65 390.25 556.55 385.8 547.45 382.15 537.35 378.6 527.5 375.2 517.4 374 513.9 373.25 510.05
M 418.8 689.45
Q 428.8 690.7 439.5 691.35 444.65 699.7 450.65 707.25 452.2 709.2 453.75 711.1 459.85 718.55 465.95 726.05 472 733.55 478.3 740.8 481.7 744.75 485.45 748.4 478.7 755.2 471.45 761.45 467.7 764.65 463.85 767.7 456.3 773.7 448.1 779 439.65 784.4 430.45 789.15 421.55 793.75 411.45 797.25 411.2 797.35 410.9 797.5 405.15 800.1 397.15 800.35 396.9 800.35 396.7 800.35 393.95 800.35 391.15 800.35 388.55 800.7 386.9 800.35 381.65 799.1 376.9 797.6 370.7 793.45 366.9 786.75 362.05 778.15 360.05 766.35 358.05 754.8 358.05 741 358.85 739.75 358.7 737.3 358.5 735.05 358.5 732.75 358.5 732.5 358.5 732.25 358.5 729.5 358.5 726.75 359.3 725.05 359.3 722.15 359.3 719.05 359.7 716.15 361.3 704 363.85 692.75 365.15 686.95 366.35 680.75 374.4 682.75 383.3 684.25 389 685.2 394.9 686.1 406.75 687.95 418.8 689.45
M 409.8 646.4
Q 414.95 654.9 420.4 663.1 421.3 664.45 422 666 419.35 666.85 415.95 666.2 412.95 665.65 410 665.25 397.8 663.75 386.55 661.5 381.15 660.4 375.55 659.4 375.3 659.35 375.1 659.35 372.75 659.6 372.75 657.75 376.4 647.55 380.05 637.2 383.55 627.35 387.3 617.65 388.6 614.2 390.25 611.3 395.15 620.2 400 629.15 404.8 637.9 409.8 646.4
M 469.35 693.2
Q 471.2 693.2 473.05 693.2 473.3 693.2 473.5 693.2 474.8 693.95 477.2 693.65 477.45 693.6 477.65 693.6 491.25 693.6 504.8 693.6 513.5 693.6 522.3 693.6 524.35 693.6 526.4 693.4
L 526.4 693.2
Q 526.65 693.2 526.9 693.15 530.65 692.85 533.3 693.6 529.65 697.75 526.2 702.2 520.35 709.9 514.25 717.4 508.2 724.85 501.6 731.8 497.65 727.95 494 723.8 493.75 723.55 493.5 723.3 487.2 716.1 481.1 708.6 475 701.1 469.35 693.2
M 609.95 613.25
Q 610.6 612 611.5 610.8 616.2 619.95 620.05 630.05 623.75 639.75 627.3 649.9 628.6 653.55 629.45 657.75 618.35 660.4 606.45 662.4 594.85 664.3 583.05 666.2 580.35 666.65 579.75 665.1 585.4 656.9 590.45 648.15 595.4 639.55 600.3 630.95 605.25 622.25 609.95 613.25
M 611.45 684.6
Q 622.8 682.6 634.05 680.25 635 680.05 635.9 679.8 638.6 690.65 640.65 701.95 641.75 708.05 642.5 714.3 644 726.25 643.6 740.1 643.15 753.3 641.5 765.4 639.9 777.45 634.5 785.6 630.1 792.25 624.4 797.6 619.75 799.85 613.8 800.45 606.6 801.15 600.9 800 589.6 797.65 580.25 793.4 570.95 789.2 562.6 784.05 554.15 778.8 546.35 773.05 538.55 767.3 531.2 761.15 524.05 755.15 517.65 748.4 524.05 741.2 530.2 733.85 533.4 730.05 536.55 726.3 542.7 718.9 548.6 711.2 554.55 703.35 560.2 695.15 561.7 693 563.2 690.85 575.95 690.05 588.05 688.3 599.7 686.65 611.45 684.6
M 510.75 536.4
Q 505.4 535.2 498.85 535.55 486.1 536.2 477.7 541.4 477.45 541.6 477.15 541.75 468.15 546.3 462.3 554.1 456.5 561.8 453.9 572.7 453.4 574.85 452.8 576.8 452.8 578.15 452.8 579.55 452.8 579.75 452.8 580 452.6 580 452.35 580 452.35 583.45 452.6 586.9
L 452.8 586.9
Q 453.75 599.5 459 607.75 461.75 612 465.05 615.6 471.65 622.8 480.95 627.2 490.2 631.65 503.85 631.15 510.15 630.9 515.35 629.15 525.45 625.75 532.55 619.25 539.65 612.75 544.15 603.8 547.7 596.7 548.5 586.9 548.7 586.9 548.7 586.85 549.3 582.9 548.5 580 547.85 570.3 544.25 563.5 543.25 561.55 542.15 559.5 537.35 550.7 529.45 544.7 521.8 538.85 510.75 536.4 Z"/>
</g>

<path id="Layer26_0_1_STROKES" stroke="#A71212" stroke-width="5" stroke-linejoin="round" stroke-linecap="round" fill="none" d="
M 847.15 151.9
L 847.2 151.9 847.2 151.85 847.15 151.9 151.9 151.9 201.525 797.525 201.525 797.55 499.55 898.85 797.525 797.55 797.525 797.525 847.2 151.9
M 905.125 93.925
L 847.2 847.2 499.55 963.05 151.85 847.2 93.95 93.95 903.15 93.95
M 797.525 797.55
L 797.55 797.55 797.525 797.525"/>
</defs>

<g transform="matrix( 1, 0, 0, 1, 0,0) ">
<use xlink:href="#Layer26_0_FILL"/>

<use xlink:href="#Layer26_0_1_STROKES"/>
</g>

<g transform="matrix( 1, 0, 0, 1, 14.6,145) ">
<clipPath id="Mask_Mask_1">
<rect x="-14.6" y="-2" width="999.95" height="154.85" fill="#FFFFFF" stroke="none"/>
</clipPath>

<text clip-path="url(#Mask_Mask_1)" writing-mode="lr"><tspan x="233.35" y="118.1" baseline-shift="0%" font-family="Source Code Pro Semibold" font-size="120" fill="#A71212" xml:space="preserve">ReactJS</tspan></text>
</g>
</svg>
