
<svg xmlns="http://www.w3.org/2000/svg" version="1.1" xmlns:xlink="http://www.w3.org/1999/xlink" preserveAspectRatio="none" x="0px" y="0px" width="1000px" height="1000px" viewBox="0 0 1000 1000">
<defs>
<g id="Layer4_0_FILL">
<path fill="#A71212" stroke="none" d="
M 758.85 519.45
Q 725.4 465.45 663.6 440.1 626.446875 424.8599609375 584.45 414.6 554.3919921875 407.2478515625 521.85 402.45 521.85 401.95 521.65 401.6 509.5494140625 381.776171875 499.55 359.8 489.6755859375 338.175 481.85 314.45 481.35 314.45 480.9 314.55 415.6 331.7 369.85 368.45 370.34296875 369.6767578125 370.85 370.85 377.2400390625 385.294921875 388.6 394.9 398.2 403.05 407.9 411.4 437 436.3 443.85 483.45 443.85 487.45 444.35 491.4 444.35 491.45 444.85 491.45 444.85 495.95 444.85 500.45 444.85 500.95 444.85 501.45 444.35 501.45 443.85 501.45 443.85 505.45 443.85 509.45 443.85 509.95 443.85 510.45 443.2 519.8 440.6 527.35 428.5130859375 563.0169921875 408.35 590.65 399.6849609375 602.608984375 389.5 613.05 374.7259765625 628.2255859375 357.95 641.1 355.9443359375 642.6369140625 353.9 644.15 328.0638671875 663.2767578125 309.5 689.5 300.2791015625 702.6083984375 292.85 717.45 292.85 719.45 292.85 721.45 292.85 721.95 292.85 722.45 292.35 722.45 291.85 722.45 291.85 726.45 292.35 730.4 292.35 730.45 292.85 730.45 302.7 765.6 332 782 388.95 813.9 471.7 821.85 480.55 822.7 490.85 823.45 495.161328125 823.7580078125 499.55 824 505.1373046875 824.28203125 510.85 824.45 510.85 824.95 510.85 825.45 516.85 825.45 522.85 825.45 523.35 825.45 523.85 825.45 523.85 824.95 523.85 824.45 556.8 767.9 572.3 695.1 579.05 663.65 579.85 627.45 580.35 627.45 580.35 627.4 581.6 619.2 579.85 613.45 579.85 612.95 579.85 612.45 580.0935546875 594.1189453125 578.05 578.05 577.173828125 571.0384765625 575.85 564.45 593.8 557.9 613.6 552.55 683.6 533.7 758.85 519.45
M 383.85 374.45
Q 390.2 362.8 401.65 356.1 401.85 355.95 401.85 355.45 416.2 370.6 428.6 387.6 428.85 387.95 428.85 388.45 403.55 384.75 384.05 375.05 383.85 374.95 383.85 374.45
M 477.9 318.65
Q 478.35 318.45 478.85 318.45 483.05 328.25 485.05 340.4 487.05 352.25 490.85 362.45 451.85 355.45 411.95 348.95 411.85 348.95 411.85 348.45 444.1 332.7 477.9 318.65
M 407.1 354.2
Q 406.85 353.95 406.85 353.45 447.1 364.2 492.8 369.95 492.85 369.95 492.85 370.45 472.55 381.65 450.65 390.9 449.35 391.45 447.85 391.45 427.15 373.15 407.1 354.2
M 488.75 408.95
Q 488.85 408.95 488.85 409.45 464.9 422.5 446.1 440.7 445.85 440.95 445.85 441.45 438.35 418.95 429.05 398.35 428.85 397.95 428.85 397.45 458.75 403.05 488.75 408.95
M 668.95 455.25
Q 669.35 455.45 669.85 455.45 617.5 468.55 572.85 483.95
L 572.85 483.45
Q 584.9 461 588.8 430.45 588.85 429.95 588.85 429.45 631.65 437.15 668.95 455.25
M 673.9 460.6
Q 674.35 460.45 674.85 460.45 646.2 501.8 614.55 540.2 614.35 540.45 613.85 540.45 597.6 515.2 574.1 497.15 573.85 496.95 573.85 496.45 621.25 475.85 673.9 460.6
M 681.25 461.65
Q 681.35 461.45 681.85 461.45 720.85 484.45 750.6 516.7 750.85 516.95 750.85 517.45 682.8 523.4 623.85 537.95
L 623.85 537.45
Q 660.25 507.35 681.25 461.65
M 510.85 587.45
L 510.85 585.95
Q 524.85 589.45 536.5 596.3 552.25 605.55 566.85 615.45 547.6 627.2 527.45 637.75 520.35 641.45 513.7 645.75 505.65 650.95 501.85 646.45 507.8 627.9 509.8 605.45 509.85 604.95 509.85 604.45 511.6 602.2 510.9 597.45 510.85 596.95 510.85 596.45 510.85 591.95 510.85 587.45
M 522.1 581.1
Q 521.85 580.95 521.85 580.45 543 574.6 562.9 567.6 563.35 567.45 563.85 567.45 567.55 586.75 567.85 609.45 567.85 609.95 567.85 610.45 544.1 596.75 522.1 581.1
M 567.85 640.45
Q 567.85 640.95 567.85 641.45 567.35 641.45 566.85 641.45 566.85 645.45 566.85 649.45 566.85 649.95 566.85 650.45 566.85 650.95 566.85 651.45 566 670.1 562.85 686.45 562.35 686.45 561.9 686.3 529.3 676 504.85 657.45 538.5 642.1 566.05 620.7 566.35 620.45 566.85 620.45 568.6 623.25 567.9 628.45 567.85 628.95 567.85 629.45 567.85 634.95 567.85 640.45
M 320.1 711.05
Q 309.45 715.55 307.85 707.45 329.25 659.85 376.85 644.95
L 376.2 646.05
Q 375.15 647.75 375.85 651.45 375.35 651.45 374.85 651.45 374.85 657.45 375.35 663.4 375.35 663.45 375.85 663.45 375.85 663.95 375.9 664.45 378.1 679.7 384.85 690.45 368.95 695.55 352.7 699.9 335.45 704.55 320.1 711.05
M 307.95 719.45
Q 307.85 718.95 307.85 718.45 346.35 709.45 384.85 700.95
L 384.85 701.45
Q 361.6 733.2 339.1 765.6 338.85 765.95 338.85 766.45 314.55 751.75 307.95 719.45
M 472.85 555.45
Q 481.35 565.45 483.8 581.45 483.85 581.95 483.85 582.45 445.75 597.85 408.85 613.95
L 408.85 613.45
Q 444.65 588.75 472.15 555.7 472.35 555.45 472.85 555.45
M 457 559.65
Q 457.35 559.45 457.85 559.45 433.7 591.8 394.85 613.95
L 394.85 613.45
Q 420.85 581.5 457 559.65
M 449.25 608.65
Q 449.35 608.45 449.85 608.45 456.2 619.65 465.5 633 474.25 645.55 485.85 655.45 450.8 671.9 412.85 679.95
L 412.85 679.45
Q 433.15 646.25 449.25 608.65
M 409.4 624.9
Q 412 624.1 415.4 622.5 423.95 618.55 433.85 615.45 417.75 650.85 397.1 681.6 396.85 681.95 396.85 682.45 390.45 673.9 388.9 660.45 388.85 659.95 388.85 659.45 388.85 658.95 388.85 658.45 388.85 652.95 388.85 647.45 388.85 646.95 388.85 646.45 388.85 643.45 388.85 640.45 395.1 629.2 409.4 624.9
M 483.95 667.65
Q 484.35 667.45 484.85 667.45 470.3 702.4 452.05 733.6 451.85 733.95 451.85 734.45 423.6 719.7 405.1 695.25 404.85 694.95 404.85 694.45 448.25 684.85 483.95 667.65
M 394.15 704.7
Q 394.35 704.45 394.85 704.45 412.35 724.45 436 738.25 436.35 738.45 436.85 738.45 393.6 755.7 348.65 770.85 343.15 772.7 342.85 768.45 368.25 736.35 394.15 704.7
M 351.1 775.1
Q 350.85 774.95 350.85 774.45 396.4 762.5 440.9 749.6 441.35 749.45 441.85 749.45 426.4 775 411.05 800.6 410.85 800.95 410.85 801.45 376.95 792.35 351.1 775.1
M 393.1 388.15
Q 392.85 387.95 392.85 387.45 407.55 391.75 422.9 395.35 423.35 395.45 423.85 395.45 429.6794921875 415.1544921875 434.95 434.95 435.1513671875 435.7009765625 435.35 436.45
L 434.85 436.45
Q 433.7919921875 434.55078125 432.7 432.7 417.0642578125 406.275 393.1 388.15
M 466.95 393.95
Q 466.85 393.95 466.85 393.45 482.35 384.95 495.05 373.7 495.35 373.45 495.85 373.45 497.63671875 377.473828125 499.55 381.35 504.2224609375 390.8734375 509.65 399.6 509.85 399.95 509.85 400.45 504.76875 400.0380859375 499.55 399.4 483.8693359375 397.5890625 466.95 393.95
M 574.85 424.45
Q 574.61328125 424.561328125 574.35 424.65 541.9890625 439.9376953125 513.1 458.8 512.85 458.95 512.85 459.45 509 448.35 507.05 433.7 506.35 428.5 504.3 421.9 502.8 417 501.85 410.45 538.65 416.65 573.85 424.35 574.2279296875 424.4255859375 574.6 424.45 574.7279296875 424.45 574.85 424.45
M 581.65 428.05
Q 581.75 428 581.8 427.9 577.35 461.2 559.5 486.2 559.35 486.45 558.85 486.45 543.565234375 478.670703125 527.85 471.2 523.46796875 469.11171875 519.05 467.05 518.85 466.95 518.85 466.45 537.608984375 452.93203125 558.05 441 569.5794921875 434.2748046875 581.65 428.05
M 494.6 411.1
Q 494.85 410.95 494.85 410.45 497.8373046875 415.4009765625 499.55 421.6 501.9373046875 430.3009765625 501.85 441.45 501.85 441.95 501.85 442.45 501.85 449.95 501.85 457.45 501.85 457.95 501.85 458.45
L 501.85 459.45
Q 500.7166015625 459.3537109375 499.55 459.2 489.806640625 458.1490234375 477.75 454.8 464.25 451.05 452.85 445.45 471.9 426.5 494.6 411.1
M 488.95 488.95
Q 493.4806640625 485.3048828125 498.05 481.7 498.35 481.45 498.85 481.45 497.0203125 488.3228515625 494.85 494.85 492.3974609375 502.426171875 489.5 509.55 483.6353515625 523.9490234375 476.05 536.6 475.85 536.95 475.85 537.45 472.0935546875 534.0947265625 468.05 531 460.9912109375 525.62421875 453.05 521.05 452.85 520.95 452.85 520.45 470.3619140625 504.1458984375 488.95 488.95
M 492.7 472.9
Q 492.85 472.95 492.85 473.45 487.6560546875 477.95625 482.5 482.5 466.7638671875 496.5640625 451.6 511.2 451.35 511.45 450.85 511.45 452.9 486.15 449.9 461.45 449.85 460.95 449.85 460.45 456.84453125 461.855078125 463.55 463.55 478.843359375 467.44765625 492.7 472.9
M 508.75 480.4
Q 508.85 479.95 508.85 479.45 512.6337890625 481.042578125 516.3 482.7 530.8474609375 489.31875 544 497.25 544.35 497.45 544.85 497.45 529.589453125 505.972265625 514.3 514.3 506.9271484375 518.308984375 499.55 522.25 495.201171875 524.6255859375 490.85 526.95
L 490.85 526.45
Q 495.6529296875 518.003515625 499.55 508.65 500.89140625 505.4455078125 502.1 502.1 503.5669921875 498.229296875 504.85 494.2 507.0076171875 487.49375 508.75 480.4
M 537.3 537.3
Q 549.492578125 522.75078125 560.2 506.7 560.35 506.45 560.85 506.45 584.35 522.95 605.6 541.75 605.85 541.95 605.85 542.45 581.3556640625 549.7076171875 557.25 557.25 528.262890625 566.387890625 499.85 575.95
L 499.85 575.45
Q 520.0595703125 557.8763671875 537.3 537.3
M 542.85 511.45
Q 536.4498046875 520.7451171875 529.85 529.85 515.1966796875 550.047265625 499.55 569.3 495.090625 574.7890625 490.55 580.2 490.35 580.45 489.85 580.45 488.25 560.05 481.05 545.35 480.85 544.95 480.85 544.45 490.166015625 539.267578125 499.55 534.15 510.7638671875 528.0634765625 522.05 522.05 531.9716796875 516.816796875 541.95 511.65 542.35 511.45 542.85 511.45
M 499.55 588.45
Q 499.69765625 588.45 499.85 588.45 500.7900390625 602.26328125 499.55 614.75 497.756640625 632.8755859375 491.4 648.25 491.35 648.45 490.85 648.45 470.4 631.45 459.05 605.35 458.85 604.95 458.85 604.45 479.1 596.7 498.9 588.65 499.212890625 588.5109375 499.55 588.45
M 446.85 534.45
Q 452.33125 537.8205078125 457.65 541.4 460.14296875 543.0767578125 462.6 544.8 462.85 544.95 462.85 545.45 446.35 559.95 427.85 571.95
L 427.85 571.45
Q 428.308203125 570.875390625 428.75 570.3 440.284765625 555.3408203125 446.3 534.6 446.35 534.45 446.85 534.45
M 468.85 726.95
L 468.85 726.45
Q 485.95 698.05 497.3 663.6 497.35 663.45 497.85 663.45 498.696875 663.9580078125 499.55 664.45 526.4138671875 680.237890625 559.9 689.3 560.35 689.45 560.85 689.45 530.719140625 704.6666015625 499.55 716.35 484.3240234375 722.0763671875 468.85 726.95
M 464.05 741.05
Q 463.85 740.95 463.85 740.45 481.9322265625 732.854296875 499.55 724.8 530.989453125 710.4474609375 560.95 694.65 561.35 694.45 561.85 694.45 552.6 730.2 541.4 764.3 541.35 764.45 540.85 764.45 519.1171875 760.644921875 499.55 754.6 480.806640625 748.853515625 464.05 741.05
M 455.6 750.3
Q 455.85 749.95 455.85 749.45 475.9685546875 756.1943359375 499.55 761.1 517.226953125 764.7650390625 536.85 767.4 537.35 767.45 537.85 767.45 518.96640625 774.1765625 499.55 780.35 459.7921875 792.95390625 417.8 803.2 416.25 803.6 416.85 801.45 437.35 776.95 455.6 750.3
M 537.95 771.65
Q 538.35 771.45 538.85 771.45 531.25 796.35 522 819.5 521.85 819.95 521.85 820.45 510.6095703125 819.1880859375 499.55 817.7 463.280859375 812.9234375 428.95 805.95 428.85 805.95 428.85 805.45 466.558203125 798.673046875 499.55 787.25 519.623046875 780.3123046875 537.95 771.65 Z"/>
</g>

<g id="Layer3_0_FILL">
<path fill="#A71212" stroke="none" d="
M 655.25 243.6
Q 653.9 239.2 652.2 234.8
L 640.8 204.15 626.85 204.15 650.35 263.1 666.15 263.1 689.05 204.15 675.85 204.15 664.45 234.8
Q 662.75 239.2 661.4 243.6 660 248 658.55 252.55
L 658.05 252.55
Q 656.65 248 655.25 243.6
M 740.9 210.6
Q 737.45 206.95 732.4 204.85 727.35 202.75 720.75 202.75 714.75 202.75 709.3 204.85 703.8 206.95 699.6 210.95 695.3 215 692.8 220.7 690.25 226.35 690.25 233.55 690.25 240.9 692.8 246.65 695.3 252.45 699.7 256.35 704.05 260.35 709.95 262.45 715.8 264.55 722.55 264.55 729 264.55 735 262.65 740.9 260.7 745.6 257.6
L 740.9 248.9
Q 736.95 251.2 733 252.55 729 253.85 724.4 253.85 716.05 253.85 710.65 249.9 705.25 245.95 704.05 237.65
L 747.4 237.65
Q 747.65 236.45 747.8 234.6 748 232.75 748 230.7 748 224.6 746.15 219.45 744.4 214.25 740.9 210.6
M 731.25 217.05
Q 735.05 220.6 735.75 227.85
L 704.45 227.85
Q 705.75 220.6 710.35 217.05 715 213.4 721.1 213.4 727.5 213.4 731.25 217.05
M 803.75 203.3
Q 801.2 202.75 797.55 202.75 789.9 202.75 783.5 206.5 777.05 210.3 772.5 217.5
L 772.15 217.5 770.95 204.15 759.55 204.15 759.55 263.1 773.5 263.1 773.5 230.6
Q 778.05 221.95 783.7 218.45 789.3 215 795.45 215 798.8 215 801 215.4 803.25 215.8 806.1 216.75
L 809 205.15
Q 806.35 203.8 803.75 203.3
M 612.45 215
Q 615.8 215 618 215.4 620.25 215.8 623.1 216.75
L 626 205.15
Q 623.35 203.8 620.75 203.3 618.2 202.75 614.55 202.75 606.9 202.75 600.5 206.5 594.05 210.3 589.5 217.5
L 589.15 217.5 587.95 204.15 576.55 204.15 576.55 263.1 590.5 263.1 590.5 230.6
Q 595.05 221.95 600.7 218.45 606.3 215 612.45 215
M 557.9 210.6
Q 554.45 206.95 549.4 204.85 544.35 202.75 537.75 202.75 531.75 202.75 526.3 204.85 520.8 206.95 516.6 210.95 512.3 215 509.8 220.7 507.25 226.35 507.25 233.55 507.25 240.9 509.8 246.65 512.3 252.45 516.7 256.35 521.05 260.35 526.95 262.45 532.8 264.55 539.55 264.55 546 264.55 552 262.65 557.9 260.7 562.6 257.6
L 557.9 248.9
Q 553.95 251.2 550 252.55 546 253.85 541.4 253.85 533.05 253.85 527.65 249.9 522.25 245.95 521.05 237.65
L 564.4 237.65
Q 564.65 236.45 564.8 234.6 565 232.75 565 230.7 565 224.6 563.15 219.45 561.4 214.25 557.9 210.6
M 527.35 217.05
Q 532 213.4 538.1 213.4 544.5 213.4 548.25 217.05 552.05 220.6 552.75 227.85
L 521.45 227.85
Q 522.75 220.6 527.35 217.05
M 501.8 193.15
Q 496.9 188.55 490.4 185.85 483.85 183.2 476.65 183.2 470.65 183.2 465.65 184.9 460.7 186.5 457.05 189.55 453.5 192.55 451.45 196.55 449.4 200.6 449.4 205.25 449.4 209.6 450.85 212.95 452.25 216.3 454.65 218.8 457.05 221.3 460.05 223.15 463.1 224.95 466.2 226.15
L 476.85 230.8
Q 479.75 232.05 482.2 233.1 484.65 234.15 486.4 235.5 488.15 236.8 489.1 238.55 490.05 240.3 490.05 242.95 490.05 247.15 486.45 249.8 482.9 252.45 476.05 252.45 469.75 252.45 464.15 250 458.5 247.5 454.05 243.55
L 445.9 253
Q 451.8 258.55 459.35 261.5 466.9 264.55 475.2 264.55 482 264.55 487.4 262.7 492.85 260.8 496.55 257.65 500.3 254.5 502.25 250.25 504.2 246.05 504.2 241.25 504.2 236.95 503 233.65 501.7 230.35 499.4 227.85 497.15 225.3 494.05 223.35 490.9 221.45 487.15 220.05
L 476.85 215.6
Q 474.2 214.55 471.75 213.55 469.3 212.6 467.45 211.3 465.6 210.05 464.5 208.45 463.45 206.8 463.45 204.55 463.45 200.1 466.85 197.7 470.3 195.3 475.9 195.3 481.9 195.3 486.3 197.1 490.7 198.9 494.6 202.05
L 501.8 193.15
M 345.15 184.65
L 331.35 184.65 331.35 263.1 382 263.1 382 251.3 345.15 251.3 345.15 184.65
M 279.45 185.85
Q 273.8 188.55 269.8 193.65 265.7 198.75 263.45 206.25 261.2 213.75 261.2 223.5 261.2 240.8 267.85 251.1 274.4 261.4 285.35 263.8 288.8 272.5 295.9 278 303 283.5 314 283.5 317.1 283.5 319.75 282.95 322.35 282.45 324.2 281.45
L 321.7 270.8
Q 320.65 271.35 319.05 271.75 317.55 272.25 315.7 272.25 310.55 272.25 306.3 270.2 302 268.15 300 263.45 310.45 260.7 316.55 250.5 322.7 240.3 322.7 223.5 322.7 213.75 320.45 206.25 318.25 198.75 314.15 193.65 310.1 188.55 304.4 185.85 298.8 183.2 291.95 183.2 285.15 183.2 279.45 185.85
M 303.95 202.55
Q 308.4 209.95 308.4 223.5 308.4 238 303.95 245.6 299.5 253.15 291.95 253.15 284.35 253.15 279.95 245.6 275.5 238 275.5 223.5 275.5 209.95 279.95 202.55 284.35 195.2 291.95 195.2 299.5 195.2 303.95 202.55
M 222.85 197.7
Q 226.3 195.3 231.9 195.3 237.9 195.3 242.3 197.1 246.7 198.9 250.6 202.05
L 257.8 193.15
Q 252.9 188.55 246.4 185.85 239.85 183.2 232.65 183.2 226.65 183.2 221.65 184.9 216.7 186.5 213.05 189.55 209.5 192.55 207.45 196.55 205.4 200.6 205.4 205.25 205.4 209.6 206.85 212.95 208.25 216.3 210.65 218.8 213.05 221.3 216.05 223.15 219.1 224.95 222.2 226.15
L 232.85 230.8
Q 235.75 232.05 238.2 233.1 240.65 234.15 242.4 235.5 244.15 236.8 245.1 238.55 246.05 240.3 246.05 242.95 246.05 247.15 242.45 249.8 238.9 252.45 232.05 252.45 225.75 252.45 220.15 250 214.5 247.5 210.05 243.55
L 201.9 253
Q 207.8 258.55 215.35 261.5 222.9 264.55 231.2 264.55 238 264.55 243.4 262.7 248.85 260.8 252.55 257.65 256.3 254.5 258.25 250.25 260.2 246.05 260.2 241.25 260.2 236.95 259 233.65 257.7 230.35 255.4 227.85 253.15 225.3 250.05 223.35 246.9 221.45 243.15 220.05
L 232.85 215.6
Q 230.2 214.55 227.75 213.55 225.3 212.6 223.45 211.3 221.6 210.05 220.5 208.45 219.45 206.8 219.45 204.55 219.45 200.1 222.85 197.7 Z"/>
</g>

<path id="Layer4_0_1_STROKES" stroke="#A71212" stroke-width="5" stroke-linejoin="round" stroke-linecap="round" fill="none" d="
M 847.2 151.9
L 847.2 151.85 847.15 151.9 847.2 151.9 797.525 797.525 797.55 797.55 797.525 797.55 499.55 898.85 201.525 797.55 201.525 797.525 151.9 151.9 847.15 151.9
M 903.15 93.95
L 93.95 93.95 151.85 847.2 499.55 963.05 847.2 847.2 905.125 93.925
M 797.525 797.55
L 797.525 797.525"/>
</defs>

<g transform="matrix( 1, 0, 0, 1, 0,0) ">
<use xlink:href="#Layer4_0_FILL"/>

<use xlink:href="#Layer4_0_1_STROKES"/>
</g>

<g transform="matrix( 1, 0, 0, 1, 0,0) ">
<use xlink:href="#Layer3_0_FILL"/>
</g>
</svg>
