
<svg xmlns="http://www.w3.org/2000/svg" version="1.1" xmlns:xlink="http://www.w3.org/1999/xlink" preserveAspectRatio="none" x="0px" y="0px" width="1000px" height="1000px" viewBox="0 0 1000 1000">
<defs>
<g id="Layer1_0_FILL">
<path fill="#A71212" stroke="none" d="
M 840.85 182.8
Q 828.25 167 813.25 153.5 809.5 150.1 805.65 146.8 797.95 140 790.25 133.3 780.7 125.05 770.6 117.3 754.5 105 737 94.05 728.25 88.5 718.8 83.25 700.65 73.2 681 64.6 661.15 55.95 639.75 48.7 629.15 45.15 617.55 42.05 606.35 39.05 594.35 36.6 582.4 34.15 570.25 32.15 557.6 30.05 544.4 28.6 539.85 28.1 534.75 28.4 530.15 28.6 528 26.95 527.5 26.95 527 26.95 498.65 26.95 470.3 26.95 469.8 27.45 469.3 27.45 464.45 27.9 459.75 28.25 457.7 28.4 455.8 28.6 448.1 29.4 440.55 30.55 436.05 31.2 430.8 31.9 405.95 35.35 383.6 41.3 372.2 44.4 361.4 47.85 355.45 49.75 349.85 51.65 328.6 59 309.45 68.05 289.95 77.15 272.15 87.8 267.7 90.45 263.2 93.1 245.15 103.5 229.3 116 228.7 116.45 228.05 116.95 219.95 123.1 211.9 129.45 209.7 131.15 207.65 133.05 192.95 146.6 177.75 159.8 177.2 160.25 176.8 160.75 163.7 176.05 150.2 191 148.85 192.5 147.5 194.05 134.55 209.5 123.45 226.55 117.6 235.35 111.75 243.85 111.3 244.5 110.8 245.05 109.6 246.55 108.65 248.45 103.7 258 98.35 266.9 96.85 269.45 95.3 272 92.65 276.3 90.4 281.1 81.3 300.55 73.15 320.6 71 325.9 69 331.1 61.1 351.6 55.15 374.25 52.15 385.45 49.6 397.45 44.65 420.85 41.8 446.5 40.3 459.25 40.65 473.5 40.8 478 39.15 480.25 39.15 498.05 39.15 515.85 39.15 516.3 39.15 516.8 40.8 518.95 40.7 523.55 40.3 537.75 41.8 550.45 44.75 576.15 49.6 599.6 52.2 611.6 55.15 622.7 61.2 645.35 69 665.95 71 671.1 73.15 676.4 81.35 696.4 90.4 715.85 92.65 720.75 95.3 725.05 96.85 727.55 98.3 730.2 100.75 734.8 103.25 739.35 113.4 757.7 125.3 774.1 126.95 776.4 128.6 778.6 140.6 794.9 153.65 810.3 166.65 825.7 181.25 839.5 184.9 843 188.65 846.55 203.15 860.4 218.95 872.95 234.8 885.55 252.05 896.6 269.45 907.7 287.65 917.65 297.15 922.8 306.85 927.35 326.25 936.5 347.05 944.05 367.95 951.55 390.45 957.25 413.25 963 438.45 966.45 440.4 966.7 442.35 966.95 449.25 967.95 456.8 968.55 457.3 968.6 457.8 968.6 463.55 969.05 469.3 969.55 469.8 969.55 470.3 970.05 498.65 970.05 527 970.05 527.5 970.05 528 970.05 528 969.55 528 969.05 542.3 969 554.95 967.25 580.1 963.95 603 958.3 614.5 955.5 626.05 952.25 631.45 950.75 636.8 949.1 658.5 942.25 678.2 933.5 697.8 924.75 716.3 914.6 734.4 904.65 751.5 893.45 768.8 882.25 783.8 868.8 785.8 867 788.7 865.85 789.25 865.65 789.75 865.2 804.9 851.95 818.95 837.55 822.5 833.9 826.05 830.25 839.9 815.75 852.9 800.35 854.25 798.7 855.55 797.15 868.4 781.7 879.55 764.3 885.15 755.55 890.4 746.5 900.85 728.5 910.4 709.9 912.95 704.95 915.2 699.85 915.8 698.7 916.25 697.45 920.45 687 925.05 677.35 925.4 676.55 925.8 675.7 933.75 655.5 940 633.25 940.8 630.3 941.6 627.35 944.65 615.9 947.2 604.25 949.75 592.1 952 580.2 952.65 576.7 953.2 573.5 955.45 561.25 956.65 547.6 956.75 546.65 956.75 545.65 956.95 537.7 957.6 531.15 958.15 525.45 957.75 519.75 957.5 517.05 959.1 516.8 959.1 516.3 959.1 515.85 959.1 498.05 959.1 480.25 958.65 479.75 958.6 479.25 958.15 473 957.75 466.8 955.95 440.6 952 415.8 951 409.95 949.85 404.1 948.55 397.95 947.1 391.75 941.85 369 934.75 347.55 927.7 326.35 919.3 306.15 915.1 296.2 910.55 286.55 905.9 276.5 900.65 267.4 890.3 249.3 878.8 232.25 867.4 215.4 854.95 199.4 848.75 191.25 841.7 183.85 841.25 183.35 840.85 182.8
M 812.8 189.6
Q 813.3 190.05 813.75 190.6 826.7 206.05 839.3 221.8 844.5 228.2 849.3 234.95 857.8 246.7 865.55 259.05 876.45 276.6 886.05 295.4 895.6 314.2 903.5 334.8 911.4 355.2 917.25 377.4 918.8 383.45 920.3 388.9 923.5 400.4 925.8 412.8 925.9 413.3 926 413.9 926.85 420.65 927.95 426.35 928.6 429.9 929 433.15 931 445.85 932.15 459.05 934.45 485.2 933.6 513.9 933.6 514.4 933.6 514.85 933.7 526 932.65 535.1 932.25 539.4 931.75 543.7 931.65 544.2 931.65 544.7 930.4 558.3 928.35 570.7 926.35 583.15 923.55 594.75 922.85 597.85 922.1 601.4 921.55 604.3 920.95 607.35 919.7 613.5 917.95 618.9 916.15 624.45 914.5 630.25 912.95 635.65 911.2 641 904.1 662.4 895.1 682.1 886.35 701.5 876.5 719.95 870.35 731.65 863.45 742.35 852.15 759.7 839.6 775.5 827.05 791.3 813.4 806.1 809.95 809.85 806.5 813.5 792.7 828.15 777.2 841.1 761.75 854 745.2 865.65 728.35 877.4 710.7 888.05 701.65 893.5 691.9 898.55 682.55 903.25 672.45 907.65 662.3 911.9 651.95 915.6 643.9 918.55 636.55 921.45 635.3 921.95 633.85 922 624.3 922.8 618.45 920 611.2 916.2 608.65 907.6 608.4 906.5 607.85 905.55 607.85 894 607.85 882.45 607.85 854.1 607.85 825.7 607.85 797.3 608.45 768.9 608.6 764.4 606.95 762.15 606.7 753.2 605 745.8 603.2 738.4 600.9 731.5 593.8 710.3 579.95 695.8 586.7 694.8 593.45 693.85 618.3 690.3 640.5 683.9 651.45 680.65 661.8 676.55 672.15 672.45 681.75 667.5 682.9 666.85 684.05 666.35 693.95 661.65 702.25 655.45 718.6 643.4 731.6 628.1 744.6 612.65 753.8 593.6 758.55 583.7 762.35 573.35 770.1 552.45 773.75 527.4 773.9 526.9 773.9 526.35 774.6 519.45 775.55 513 776.5 506.85 776.35 499.5 776.25 497.55 776.85 495.8 777.7 493.25 777.8 488.85 778.05 459.6 773.1 436 768.25 412.75 759.2 393.5 757.95 390.75 756.6 388.45 746.2 370.3 732.95 355.15 736.9 342.7 739.3 329.05 739.7 326.7 740.2 324.4 741.3 319.65 740.8 312.75 740.65 310.85 741.35 309.2 742.3 306.75 741.25 302.3 740.5 299.5 740.45 295.45 740.35 281.3 737.8 269.45 736.5 263.6 735.2 257.85 732.45 245.9 727.2 236.7 721.5 235.2 713.7 235.85 707.1 236.45 701.15 237.45 696.85 238.15 693.4 239.15 682.05 242.6 671.45 246.55 668.75 247.55 666.35 248.8 661.3 251.15 656.25 253.75 637.65 263.15 620.3 274.15 618.45 275.2 616.8 276.6 612.85 279.65 607.85 281.95 602.35 281.25 597.4 279.75 596.8 279.6 596.25 279.5 589.35 278.35 583.65 276.65 582.4 276.2 581.15 275.65 579.7 275.05 577.2 274.65 553.35 270.55 527 268.75 523.15 268.55 519.4 267.95 513.5 267.15 505.85 267.15 477.25 267.3 451.95 270.25 438.9 271.75 426.9 274 414.5 276.2 403 279.5 397.25 281.15 390.35 281.95 387.75 282.2 387.2 280.15 387 279.6 386.4 279.3 380.4 276.05 374.9 272.4 357.95 261 338.75 251.5 319.9 242.25 296.15 237.3 290.45 236.1 283.6 235.8 275.95 235.45 270.05 236.7 268.35 240.75 266.7 245.25 259.35 265.95 257.15 292.5 256.65 298.85 257.15 306 257.6 312.35 257.95 319.5 258.25 326.15 259.3 332.1 261.55 344.45 265.25 355.15 264.75 356.05 264.1 356.85 250.75 371.85 240.85 390.55 231 408.9 225.7 432.05 220.4 455.05 221.1 484.05 221.8 511.6 226.15 535.95 230.3 559.95 238.05 580.4 245.95 601.1 258.1 617.25 258.5 617.8 259 618.45 264.75 626.1 271 633.25 274.45 637.05 278.2 640.45 293.25 653.85 310.8 664.55 311.45 665 312 665.45 313.6 666.75 315.45 667.6 325.35 672.25 335.65 676.35 355.95 684.45 378.95 689.5 382.45 690.3 385.55 691 397.4 693.6 410.55 695.25 411.05 695.3 411.55 695.3 416.05 695.1 418.3 696.75 413.7 700.75 410.1 705.7 409.6 706.35 409.15 706.95 396.9 722.95 392.85 747.65 392.8 748.25 392.8 748.75 392.95 753.7 390.35 755.4 373.65 763.65 350.95 766.35 346.5 766.85 341.3 766.45 338.15 766.25 334.55 766.1 327.5 765.9 322 764.4 316.2 762.8 311.2 760.85 300.65 756.65 292.85 750.05 291.25 748.75 289.75 747.3 275.15 733.6 264.75 715.75 264.35 715.05 263.9 714.35 258.15 705.8 251.35 698.2 237.9 683.25 217.2 675.5 206.75 671.6 192.15 672.2 191.65 672.2 191.15 672.25 182.7 672.9 178.65 677.5 177.8 683.65 180.6 686.2 181.1 686.6 181.4 687.2 183.45 691.45 187.3 693.95 189.95 695.65 192.45 697.25 209.9 708.3 221.9 724.75 233.8 741.2 242 761.3 244.15 766.55 246.5 771.55 255.7 790.55 270.5 804.1 272 805.45 273.6 806.85 288.95 819.85 311.35 826 322.55 829.1 336.5 829.65 340.1 829.8 343.25 830.1 347.05 830.55 350.8 829.9 353.65 829.4 357.7 829.45 364.85 829.5 371.1 828.45 374.25 827.85 377.8 827.3 383.75 826.3 390.35 825.7 390.35 834.35 390.35 843 390.35 871.4 390.35 899.8 390.35 902.7 389.8 905.45 388.3 912.1 384.6 917.15 382.15 917.55 380.75 919 379 920.65 376.05 921.35 371.25 922.5 364.45 921.65 359.5 921 355.55 919.5 334.8 911.6 315.55 902.25 314.3 901.7 313.25 901.2 302.95 896.75 293.9 891.55 293.2 891.15 292.6 890.65 291.1 889.4 289.25 888.5 270.3 878.95 254.35 866.6 253.7 866.15 253.15 865.65 236.75 853.7 221.15 840.85 205.65 828 191.8 813.5 188.3 809.85 184.9 806.05 171.5 790.95 158.4 775.65 158 775.15 157.6 774.65 145.75 758 134.5 741 128.75 732.2 123.45 722.95 113.1 705.05 104.35 685.25 95.7 665.7 88.7 644.6 81.55 623.05 75.75 600.5 74.95 597.35 74.25 593.85 71.9 582.2 69.85 569.7 67.85 557.35 66.65 543.8 66.55 543.3 66.5 542.7 66.05 537.45 65.5 532.2 64.5 523.2 64.6 511.95 64.6 511.45 64.6 510.95 64.1 498.45 64.1 486 65.85 483.8 65.5 479.25 65.15 473 65.55 466.8 65.65 466.3 65.55 465.8 65.55 458.05 66.5 452.25 67.5 445.55 68.45 438.85 68.5 438.35 68.55 437.85 71.5 412 77.55 389.75 80.65 378.35 84 366.85 90.4 345.3 98.5 325.2 106.7 304.8 116.75 286.65 122 277.3 126.9 267.65 127.15 267.1 127.55 266.5 133.25 257.75 138.75 249 149.8 231.5 162.8 216.2 166.15 212.25 169.45 208.3 182.4 192.85 196.45 178.5 203.6 171.25 211.35 164.55 226.55 151.4 242.55 139.05 244.8 137.4 247 135.85 255 130.25 262.75 124.65 267 121.55 271.65 118.75 273.95 117.45 276.2 116 293.9 105.15 313.1 95.6 322.5 90.95 332.6 86.65 337.7 84.5 343.05 82.4 363.3 74.45 385.55 68.2 396.7 65 408.65 62.45 431.95 57.4 457.7 54.85 483.55 52.3 512.6 53.1 526.5 53.45 539.6 54.7 565.7 57.1 588.65 62.5 591.7 63.3 595.3 63.95 598.25 64.5 601.2 65.25 612.75 68.25 624.05 71.85 645.15 78.65 665.55 86.8 675.9 90.8 685.05 95.85 687.75 97.2 690.45 98.5 700.15 103.1 709.25 108.2 714.1 110.85 718.55 113.55 736.15 124.35 752.45 136.4 768.75 148.55 783.6 162.1 798.4 175.7 812.8 189.6 Z"/>
</g>
</defs>

<g transform="matrix( 1, 0, 0, 1, 0,0) ">
<use xlink:href="#Layer1_0_FILL"/>
</g>
</svg>
