
<svg xmlns="http://www.w3.org/2000/svg" version="1.1" xmlns:xlink="http://www.w3.org/1999/xlink" preserveAspectRatio="none" x="0px" y="0px" width="1000px" height="1000px" viewBox="0 0 1000 1000">
<defs>
<g id="Layer1_0_FILL">
<path fill="#A71212" fill-opacity="0.996078431372549" stroke="none" d="
M 141.7 292.6
Q 122.2 292.6 102.65 292.6 83.1 292.6 63.6 292.45 53.4 292.4 48.15 297.1 42.85 301.8 40.25 309.15 40.25 310.5 40.25 311.95 40.25 312.25 40.25 312.6 40 312.6 39.65 312.6 39.65 332.2 39.65 351.85 39.65 371.5 39.65 391.1 39.65 410.75 39.65 430.35 39.65 449.95 39.65 469.65 39.65 489.25 39.65 508.85 39.65 528.45 39.65 548.15 39.65 567.75 39.65 587.35 39.65 607 39.65 626.65 39.65 646.3 39.65 665.9 39.65 685.5 39.65 705.2 39.65 724.8 39.65 744.4 39.65 764 39.65 783.7 39.65 803.3 39.65 822.9 39.65 842.55 39.65 862.2 39.65 881.8 39.65 901.45 39.65 921.05 39.3 940.75 39.15 946.3 40.25 950.35 40.4 955.65 42.25 959.25 42.9 960.55 43.65 961.65 46.75 966.25 51.85 968.5 52.95 969 53.6 969.05 64.35 970.75 76.85 970.6 96.35 970.3 115.85 970.3 135.4 970.3 154.95 970.3 174.4 970.3 193.95 970.3 213.5 970.3 233.05 970.3 242.8 970.3 252.5 970.8 274.1 972.05 278.6 956.6 279.75 952.85 279.8 948.3 280.25 928.65 280.25 909 280.25 889.4 280.25 869.75 280.25 850.15 280.25 830.5 280.25 810.85 280.25 791.25 280.25 771.65 280.25 751.95 280.25 732.35 280.25 712.75 280.25 693.15 280.25 673.45 280.25 653.85 280.25 634.25 280.25 614.6 280.25 594.95 280.25 575.3 280.25 555.7 280.25 536.1 280.25 516.4 280.25 496.8 280.25 477.2 280.25 457.6 280.25 437.95 280.25 418.3 280.25 398.7 280.25 379.05 280.25 359.45 280.25 339.8 280.45 320.15 280.65 305.3 273.4 298.05 268.45 293 258.85 292.85 239.3 292.6 219.75 292.6 200.3 292.6 180.75 292.6 161.2 292.6 141.7 292.6
M 238.35 56.15
Q 227.3 47.5 213.95 41.6 200.2 35.5 183.8 32.8 166.15 29.85 147.4 31.25 129.45 32.45 115.1 37.35 100.2 42.45 88.25 50.3 76.4 58.15 66.95 68.3 57.5 78.4 50.8 91.45 44.2 104.25 41.6 121.1 41.15 124.45 40.25 127.3 40.25 131.45 40.2 135.6 40 147.55 41.75 157.6 44.7 173.95 51.3 186.75 54.7 193.45 59 199.35 67.3 210.75 77.8 219.95 88.2 229.05 101.25 235.65 114.2 242.25 130.35 245.8 146.5 249.35 166.85 248.55 185.85 247.8 200.9 243.1 216 238.45 228.2 231.05 240.55 223.6 250.2 213.6 259.75 203.6 266.6 190.8 268.65 186.95 270.35 182.95 276.3 169 278.6 152.05 279.8 143 279 132.9 277.65 115.2 272.05 101.15 266.5 87.05 257.9 75.9 249.3 64.8 238.35 56.15
M 689.7 297.1
Q 673.5 300.5 658.25 305.4 643.25 310.2 629.75 316.7 616.15 323.15 603.55 330.85 591.5 338.3 580.65 347 580.35 346.65 580.35 346.3 580.05 333.6 580 320.85 580 316.35 579.4 312 578.3 303.95 573.8 298.7 568.9 293 558.6 292.85 539.05 292.6 519.6 292.6 500.05 292.6 480.5 292.6 461.05 292.6 441.5 292.6 421.95 292.6 402.4 292.6 382.9 292.6 363.4 292.5 353.25 292.45 348.05 297.2 342.9 302 340.1 309.15 340.1 328.75 340.1 348.45 340.1 368.05 340.1 387.65 340.1 407.25 340.1 426.95 340.1 446.55 340.1 466.15 340.1 485.8 340.1 505.45 340.1 525.05 340.1 544.7 340.1 564.3 340.1 583.95 340.1 603.6 340.1 623.2 340.1 642.8 340.1 662.5 340.1 682.1 340.1 701.7 340.1 721.3 340.1 741 340.1 760.6 340.1 780.2 340.1 799.85 340.1 819.5 340.1 839.15 340.1 858.75 340.1 878.35 340.1 898.05 340.1 917.65 340.1 937.25 340.1 945.15 340.55 953.05 340.7 954.8 341.4 956.5 344.45 964.7 351.4 968.9 358.55 970.95 368.4 970.75 386.4 970.3 404.3 970.35 422.3 970.35 440.2 970.35 458.15 970.35 476.15 970.35 494.05 970.35 512.05 970.3 528.1 970.3 544.1 970 544.45 969.95 544.85 969.85 559.5 965.45 559.7 946.9 559.9 927.25 559.9 907.65 559.9 888 559.9 868.4 559.9 848.75 559.9 829.1 559.9 809.5 559.9 789.9 559.9 770.2 559.9 750.6 559.9 731 559.9 711.4 559.9 691.7 559.9 672.1 559.9 652.45 559.65 632.85 559.45 615.25 560.45 599.1 561.05 589.85 563.15 582.4 567.55 566.95 574.9 554.95 582.7 542.3 593.55 532.65 604.15 523.1 618.85 517.25 625.7 514.5 634.2 512.9 642.35 511.4 652.45 511.8 671.4 512.55 684.7 518.8 698.7 525.35 708.9 535.3 710.4 536.8 711.9 538.3 721.7 548.3 728.5 561.65 734.9 574.25 737.85 590.15 739.45 598.75 739.4 608.75 739.35 628.35 739.35 648 739.35 667.6 739.35 687.25 739.35 706.9 739.35 726.5 739.35 746.1 739.35 765.8 739.35 785.4 739.35 805 739.35 824.6 739.35 844.3 739.35 863.9 739.35 883.55 739.35 903.15 739.4 922.8 739.4 935.55 739.7 948.3 739.7 948.65 740 948.95 740.1 957.95 744.25 962.85 744.35 963.05 744.35 963.4 750.65 971.3 765.8 970.9 785.35 970.3 804.85 970.3 824.4 970.3 843.95 970.3 863.4 970.3 882.95 970.3 902.5 970.3 922.05 970.3 933 970.3 944.05 970 944.35 969.95 944.8 969.85 955.75 966.55 958.65 955.25 959.15 953.45 959.85 951.7 959.85 933.8 959.85 915.95 959.85 896.25 959.85 876.65 959.85 857.05 959.85 837.4 959.85 817.75 959.85 798.15 959.85 778.5 959.85 758.9 959.85 739.25 959.85 719.6 959.85 700 959.85 680.4 959.85 660.7 959.85 641.1 959.75 621.5 959.75 601.9 959.75 582.2 959.85 562.6 958.75 561.3 958.9 558.45 959.2 551.2 958.6 544.7 956.95 525.75 954.1 508.2 951.25 490.4 946.95 474.35 942.55 457.9 936.8 442.85 931.1 428.05 924.5 413.85 921.2 406.85 917.55 400.45 909.9 387.15 901 375.45 892.3 364.1 882.75 353.4 881.5 352.05 880.25 350.75 870.15 340.75 858.7 332.3 847.4 324 835 316.95 822.75 310 808.65 305 794.95 300.1 779.65 297.1 762.9 293.8 744.35 293 724.2 292.05 707.2 294.15 698 295.3 689.7 297.1 Z"/>
</g>
</defs>

<g transform="matrix( 1, 0, 0, 1, 0,0) ">
<use xlink:href="#Layer1_0_FILL"/>
</g>
</svg>
