
<svg xmlns="http://www.w3.org/2000/svg" version="1.1" xmlns:xlink="http://www.w3.org/1999/xlink" preserveAspectRatio="none" x="0px" y="0px" width="1000px" height="1000px" viewBox="0 0 1000 1000">
<defs>
<g id="Layer1_0_FILL">
<path fill="#A71212" stroke="none" d="
M 683.05 143.45
Q 679.8 143.7 679 142 678.5 142 678 142 665 142 652 142 651.2 143.7 647.95 143.45 640.85 142.85 635 143.9 626.8 145.3 618.2 146.95 613.35 147.85 608 148.95 583.45 153.95 563.7 163.4 557.4 166.4 551.35 169.65 532.35 179.85 515 192.05 510.65 195.1 506.5 198.35 489.85 211.35 476.25 227.35 473.8 230.3 471.25 233.35 457.95 249.45 447.35 268.65 436.95 287.45 429.3 309.1 421.5 331 417.65 356.95 416.75 363.25 416.75 370 416.75 376.25 415 380 415.5 384 415.5 388 415.5 388.5 415.5 389 415.65 397.8 415.8 399.95 416.05 403.65 416.3 412 416.7 426.3 419.1 438.2 421.8 451.25 425.4 462.9 432.3 485.2 442 505 451.7 524.8 464.25 541.55 477 558.5 492.2 572.75 507.45 587.05 524.85 599.25 542.15 611.35 562.7 620.7 582.7 629.8 606.8 635.75 630.05 641.45 659 642.2 689.45 642.95 713.2 637.9 719.95 636.45 726 634.9 749.5 629 769.35 619.75 774.75 617.25 779.75 614.5 798.65 604.15 815.5 591.35 832.2 578.7 846.8 563.8 861.4 548.9 873.3 531.2 885.2 513.7 894.15 493.05 903.05 472.55 908.75 448.95 914.5 425 915.05 396 915.6 365.9 910.65 341.85 905.5 317 896.9 296.6 888.05 275.5 876.35 257.8 864.55 239.95 850.45 224.5 836.35 209.15 820 196 803.6 182.9 784.7 172.55 765.45 162.05 743.25 154.3 721.7 146.8 695.05 143.6 689.55 142.95 683.05 143.45
M 798 261.75
Q 800.2 261.8 802.95 262.35 827.3 267.2 824.9 300.05 824 312.5 824 325 824 329 824 333 794.5 333 765 333 738 333 711 333 696 318.5 681 304 674.85 298.1 670 291 674.55 280.55 680.75 271.8 690.6 258.05 717.05 260.15 728 261 739 261 768.5 261 798 261.75
M 678.75 321.25
Q 689.5 332 700 343 729.5 343 759 343 788.5 343 818 343 821 343 824 343 824 372.5 824 402 824 431.5 824 461 824 484.5 823.1 507.95 823 509.5 821.9 510.9 821.05 512.05 821 514 817.8 516.3 813.95 517.85 813.5 518 813 518 788 518 763 518 733.5 518 704 518 674.5 518 645 518 615.5 518 586 518 556.5 518 527 518 526.5 518 526.05 517.9 516.95 515.55 516 505 516 500.5 516 496 516 466.5 516 437 516 407.5 516 378 516 348.5 516 319 516 318.5 516 318 516 315.5 516 313 521.85 289.35 554.05 291.15 569 292 584 292 613.5 292 643 292 646 292 649 292 664 306.5 678.75 321.25 Z"/>
</g>
</defs>

<g transform="matrix( 1, 0, 0, 1, 178.55,701) ">
<clipPath id="Mask_Mask_1">
<rect x="-178.55" y="-2" width="999.1" height="192.55" fill="#FFFFFF" stroke="none"/>
</clipPath>

<text clip-path="url(#Mask_Mask_1)" writing-mode="lr"><tspan x="-39" y="147.6" baseline-shift="0%" font-family="Source Code Pro Semibold" font-size="150" fill="#A71212" xml:space="preserve">PROJECTS</tspan></text>
</g>

<g transform="matrix( 1.3363189697265625, 0, 0, 1.3363189697265625, -389.05,-158.25) ">
<use xlink:href="#Layer1_0_FILL"/>
</g>
</svg>
