
<svg xmlns="http://www.w3.org/2000/svg" version="1.1" xmlns:xlink="http://www.w3.org/1999/xlink" preserveAspectRatio="none" x="0px" y="0px" width="1000px" height="1000px" viewBox="0 0 1000 1000">
<defs>
<path id="Layer1_0_1_STROKES" stroke="#A71212" stroke-width="5" stroke-linejoin="round" stroke-linecap="round" fill="none" d="
M 847.2 151.9
L 847.2 151.85 847.15 151.9 847.2 151.9 797.525 797.525 797.55 797.55 797.525 797.55 499.55 898.85 201.525 797.55 201.525 797.525 151.9 151.9 847.15 151.9
M 728.6 362.15
L 268.6 362.2 274.575 439.175 275.6 450.4 354.7 450.4 353.55 435.4 645.725 435.4 640.8 499.5 629 499.5 629 499.55 499.55 499.55 499.5 499.55 420.675 499.55 426.3 572.75 635.175 572.75 629 653 499.55 697.05 370.05 653 366.025 600.85 286.95 600.85 294.9 704.15 499.55 773.725 499.55 773.75 702.45 702.45 728.6 362.15 Z
M 274.575 439.175
L 275.375 450.4 275.6 450.4
M 499.55 499.55
L 499.55 499.5 499.525 499.525 499.55 499.55 Z
M 499.525 499.525
L 499.5 499.55
M 499.55 499.5
L 629 499.5
M 903.15 93.95
L 93.95 93.95 151.85 847.2 499.55 963.05 847.2 847.2 905.125 93.925
M 797.525 797.55
L 797.525 797.525"/>
</defs>

<g transform="matrix( 1, 0, 0, 1, 14.6,145) ">
<clipPath id="Mask_Mask_1">
<rect x="-14.6" y="-2" width="999.95" height="154.85" fill="#FFFFFF" stroke="none"/>
</clipPath>

<text clip-path="url(#Mask_Mask_1)" writing-mode="lr"><tspan x="377.35" y="118.1" baseline-shift="0%" font-family="Source Code Pro Semibold" font-size="120" fill="#A71212" xml:space="preserve">CSS</tspan></text>
</g>

<g transform="matrix( 1, 0, 0, 1, 0,0) ">
<use xlink:href="#Layer1_0_1_STROKES"/>
</g>
</svg>
