
<svg xmlns="http://www.w3.org/2000/svg" version="1.1" xmlns:xlink="http://www.w3.org/1999/xlink" preserveAspectRatio="none" x="0px" y="0px" width="1000px" height="1000px" viewBox="0 0 1000 1000">
<defs>
<g id="Layer23_0_FILL">
<path fill="#A71212" stroke="none" d="
M 661.15 639.75
Q 659.35 638.65 657.65 637.5 647.9 631.2 636.85 626.35 631.2 623.9 625.7 621.15 622.0203125 619.36953125 617.95 617.95 616.8955078125 617.5943359375 615.8 617.25 606.7 614.4 602.85 606.35 601.209765625 603.0076171875 599.65 599.65 598.68359375 597.5767578125 597.75 595.5 592.65 584.45 587.35 573.95 582.65 564.8 578.4 555.5 573.35 544.5 568.35 533.55 563.35 522.65 558.9 511 554.5 499.7 548.4 489.85 542.3 480.05 535.8 470.55 534.36640625 468.3765625 532.85 466.2 532.7240234375 466.0265625 532.6 465.85 525.9 456.5 518.6 447.9 511.3 439.3 503.4 431.3 501.48828125 429.3640625 499.55 427.45 493.479296875 421.473046875 487.15 415.75 478.75 408.2 469.9 401.2 465.35 397.55 460.75 394 451.8 387.15 441.85 381 432.15 374.95 421.95 369.45 416.6 366.55 410.75 364.5 398.8 360.3 385.95 357.5 379.05 356.05 371.45 355.6 363.75 355.2 355.8 355 354.05 353.55 352.3 352 351.3419921875 351.1716796875 350.35 350.35 342.66171875 344.001953125 333.7 338.9 323.55 333.1 312.15 328.5 300.85 323.95 286.2 323.05 285.2 322.95 283.55 323.05 278.65 323.15 275.3 324.5 263.85 329.1 260.1 341.05 259.1 344.35 258.2 347.45 258.75 362.85 265.45 371.9 265.75 372.25 266 372.65 272.45 382 279.5 390.85 279.75 391.15 280.05 391.45 287.4 399.95 293.65 409.8 294.75 411.5 295.7 413.4 299.65 421.45 302.05 431 303.7 437.35 305.75 443.1 310.1 454.95 314.75 466.5 319.2 477.65 324.8 487.85 330.45 498.25 338.4 506.2 340 507.85 340.7 510.35 336.3 517.85 334.8 528.15 334.05 533.35 332.6 537.5 331.95 539.35 331.45 541.1 329.65 547.3 328.6 554.1 327.3 562.5 326.7 571.3 326.7 579.4 326.7 587.5 326.7 587.75 326.7 588.05 327.7 603 330.85 616 333.95 628.55 339.25 639.2 342.6546875 646.07421875 347.05 651.95 349.4611328125 655.1826171875 352.15 658.1 357.7 664.1 367.15 666.25 369.3 666.25 371.45 666.25 371.75 666.25 372 666.25 383.3 664.55 386.9 655.05 389.05 649.3 389.8 641.95 391.3 627.55 394.65 615 399.25 623.65 403.4 632.45 406.35 638.65 409.8 644.1 416 653.8 423.8 661.95 431.55 670.1 440.15 677.35 442.35 679.2 444.6 680.95 451.4 686.1 457 692.35 464.6 700.7 475.05 706.15 468.15 699.55 461.15 693.05 460.05 692 459.05 690.85 451.45 682.55 445.1 672.9 441.95 668.05 438.8 663.25 432.35 653.65 426.35 643.65 420.35 633.85 414.75 623.3 409.25 613.05 404.45 601.7 403.3916015625 599.218359375 402.4 596.65 400.67421875 592.18125 399.15 587.45 397.2 581.2 394.1 576.15 391.85 578.5 389.85 581.05 387.8 583.6 385.6 586.1 378.3 594.6 375.2 607.05 372.7279296875 616.9384765625 371.4 627.6 370.99921875 631.0033203125 370.7 634.45 370 642.15 368.25 648.45 362.3 647.9 359.25 644.4 358.181640625 643.159375 357.2 641.8 355.408984375 639.28359375 354 636.4 348.7 625.65 345.15 613.35 341.6 600.95 341.25 585.35 341 585.35 341 585.3 340.7 582.9 340.7 580.5 340.7 580.2 340.7 579.95 340.7 578.05 340.7 576.15 340.7 575.9 340.7 575.65 340.7 572.65 340.7 569.7 341 569.7 341.25 569.7 341.35 556.05 344.4 545.4 344.9 543.65 345.5 541.8 349.3 530 353.25 518.3 355.4 512.1 355.3 503.9 353.05 499.1 349.4 495.75 341.1 488.15 335.4 477.7 329.9 467.55 326 455.4 322.15 443.45 318.45 431.5 314.6 419.15 309.1 408.6 303.7 398.25 296.9 389.1 293.45 384.5 289.85 380 282.75 371.2 276.75 361.35 276.55 360.95 276.3 360.55 273 355.85 273.3 347.45 274.45 345.35 275.35 343.1 275.45 342.9 275.45 342.6 278 341.4 280.75 340.25 280.85 340.2 280.85 339.9 292.5 340.15 300.4 343.95 308.15 347.7 315.9 351.3 326.65 356.4 335.6 363.45 336.95 364.45 338.25 365.55 342.15 369 346.65 371.75 354.95 371.55 361.8 372.45 365.65 372.95 369.3 373 371.2560546875 373.03046875 373.1 373.1 386.601953125 373.861328125 395.95 378.25 398.9 379.65 401.65 380.9 412.7 385.8 423.05 391.5 428.15 394.35 433.15 397.3 443.25 403.25 452.05 410.3 452.35 410.55 452.7 410.85 461.55 417.85 470.15 425.15 478.8 432.4 486.7 440.5 493.3783203125 447.3060546875 499.55 454.7 500.6328125 455.98671875 501.7 457.3 508.8 466.05 515.35 475.4 517.0810546875 477.820703125 518.75 480.25 523.548828125 487.2900390625 527.95 494.65 533.95 504.6 538.75 515.45 541.35 521.2 543.7 527 548.3 538.2 553.5 549.05 555.519140625 553.286328125 557.55 557.55 560.6587890625 564.0654296875 563.8 570.65 568.85 581.3 573.7 592.65 574.25 594 574.9 595.55 579.7 606.6 585.6 616.6 589.8 623.75 596.05 628.75 596.4 629.05 596.8 629.25 601.9 632.2 608.25 633.95 620.6 637.45 632.15 641.6 640.95 644.85 648.6 649.25 649.37578125 649.69609375 650.15 650.15 659.321484375 655.508203125 667.9 661.55 677.3 668.15 686.7 674.5 691.45 677.7 695.95 681.1 698.25 682.85 700.4 684.65 702.45 686.4 703.2 689.45 701.1 690.7 698.7 689.9 698.1 689.7 695.1 689.75 692.45 689.8 691.35 689.45 691.35 689.7 691.3 689.7 690.5654296875 689.7748046875 689.8 689.8 687.6154296875 690 685.4 690 683.25 690 681.1 690.1 666.3 691.1 653.6 694.4 651.3 695 648.9 695.85 643.2 697.95 636.9 699.85 636.6 699.95 636.3 700 628.85 700.85 626.05 706.15 627.45 708.8 628.7 711.6 633.6 722.65 641.35 730.8 649.15 738.9 658.65 745.45 661 747 663.35 748.65 672.75 755.2 683.65 760.3 694.45 765.35 705.3 770.45 705.6 770.6 705.95 770.85 715.5 777.2 724.7 783.9 728.95 786.95 732.65 790.55 736.35 794.1 740.95 796.8 740.95 796.5 740.95 796.25 740.95 795.7 740.95 795.15 739 792.8 737.9 789.35 736.85 786.3 734.65 784.2 726.45 776.5 719.2 767.8 711.95 759.2 703.35 751.8 699 748.15 694.25 744.85 684.8 738.35 674.6 732.6 672 731.15 669.55 729.75 659.25 723.95 654.1 713.15 656.7 712.25 660 711.7 662.95 711.2 665.9 710.3 678.05 706.6 692.4 705.15 698.18828125 704.551171875 703.55 703.55 711.6703125 702.0931640625 718.85 699.75 720.75 699.15 722.65 698.9 724.7 698.55 724.75 696.45 724.95 694.65 724.1 693.9 721.55 691.85 719.55 689.15 716.9 685.7 714.1 682.25 707 673.5 698.05 666.45 689.25 659.4 680.1 652.65 671 645.85 661.15 639.75
M 377.95 413.8
Q 374.25 407.5 367.7 404.1 367.4 404.1 367.15 404.1 360.5 404.45 354.75 405.7 357.55 410.7 361.75 414.35 362 414.6 362.25 414.95 368.65 424.45 373.6 435.4 373.6 435.1 373.75 435.05 380.9 430.55 380.65 418.65 379.35 416.15 377.95 413.8 Z"/>
</g>

<path id="Layer23_0_1_STROKES" stroke="#A71212" stroke-width="5" stroke-linejoin="round" stroke-linecap="round" fill="none" d="
M 847.2 151.85
L 847.15 151.9 847.2 151.9 847.2 151.85 Z
M 847.15 151.9
L 151.9 151.9 201.525 797.525 201.525 797.55 499.55 898.85 797.525 797.55 797.525 797.525 847.2 151.9
M 903.15 93.95
L 93.95 93.95 151.85 847.2 499.55 963.05 847.2 847.2 905.125 93.925
M 797.525 797.525
L 797.55 797.55 797.525 797.55"/>
</defs>

<g transform="matrix( 1, 0, 0, 1, 0,0) ">
<use xlink:href="#Layer23_0_FILL"/>

<use xlink:href="#Layer23_0_1_STROKES"/>
</g>

<g transform="matrix( 1, 0, 0, 1, 14.6,145) ">
<clipPath id="Mask_Mask_1">
<rect x="-14.6" y="-2" width="999.95" height="154.85" fill="#FFFFFF" stroke="none"/>
</clipPath>

<text clip-path="url(#Mask_Mask_1)" writing-mode="lr"><tspan x="305.35" y="118.1" baseline-shift="0%" font-family="Source Code Pro Semibold" font-size="120" fill="#A71212" xml:space="preserve">MySQL</tspan></text>
</g>
</svg>
