
<svg xmlns="http://www.w3.org/2000/svg" version="1.1" xmlns:xlink="http://www.w3.org/1999/xlink" preserveAspectRatio="none" x="0px" y="0px" width="1000px" height="1000px" viewBox="0 0 1000 1000">
<defs>
<path id="Layer1_0_1_STROKES" stroke="#A71212" stroke-width="5" stroke-linejoin="round" stroke-linecap="round" fill="none" d="
M 847.2 151.85
L 847.15 151.9 847.2 151.9 847.2 151.85 Z
M 847.2 151.9
L 900 160.7 847.2 847.2 499.55 963.05 151.85 847.2 99.075 160.675 151.875 151.875 153.475 151.625 499.55 93.95 845.6 151.65
M 153.475 151.625
L 151.9 151.9 151.875 151.875
M 499.55 417.35
L 550 550.5 449.15 550.5 449.1 550.5 449.15 550.45 499.55 417.35 Z
M 449.15 550.5
L 449.15 550.45
M 313.8 747.75
L 374.45 747.75 429 603.7 570.15 603.7 624.7 747.75 685.35 747.75 499.55 257.1 313.8 747.75 Z
M 201.525 797.525
L 201.525 797.55 201.55 797.55 499.55 898.85 797.525 797.55 797.525 797.525 842.8 209.125 499.55 151.9 156.3 209.125 201.525 797.525 Z
M 797.525 797.55
L 797.55 797.55 797.525 797.525"/>
</defs>

<g transform="matrix( 1, 0, 0, 1, 0,0) ">
<use xlink:href="#Layer1_0_1_STROKES"/>
</g>
</svg>
