
<svg xmlns="http://www.w3.org/2000/svg" version="1.1" xmlns:xlink="http://www.w3.org/1999/xlink" preserveAspectRatio="none" x="0px" y="0px" width="1000px" height="1000px" viewBox="0 0 1000 1000">
<defs>
<g id="Layer3_0_FILL">
<path fill="#A71212" fill-opacity="0.996078431372549" stroke="none" d="
M 499.55 341.15
Q 499.02578125 340.5767578125 498.5 340 487 351.9 476.65 365.05 452.1767578125 396.182421875 431.7 431.7 421.9259765625 448.75625 413.05 466.8 386.15 521.55 378.6 596.35 378.1302734375 608.7060546875 378.65 620.35 381.5623046875 680.6904296875 411.9 722.3 440.2 761.1 489.55 778.95 489.55 779.3388671875 489.55 779.7 489.615625 781.375 489.9 783 489.9 783.0896484375 490.15 783.1 490.1783203125 783.275 490.15 783.45 490.1517578125 783.5310546875 490.1 783.6 489.9087890625 783.743359375 489.55 783.75 489.5708984375 782.7603515625 489.55 781.75 489.55 782.759765625 489.55 783.75 489.5638671875 783.943359375 489.55 784.1 489.834765625 787.7373046875 490.05 790.85 490.1041015625 791.3359375 490.1 791.75 490.1666015625 792.248828125 490.2 792.7 490.25 793.05 490.25 793.4 490.183203125 793.4 490.1 793.4 490.0697265625 793.4 490 793.4 489.8408203125 793.4 489.65 793.4 489.5958984375 793.4 489.55 793.4 489.5501953125 793.5328125 489.55 793.65
L 489.55 796.1
Q 489.6099609375 798.1685546875 489.7 800.2 489.775 801.8400390625 489.85 803.45 489.8923828125 803.587890625 489.9 803.7 489.9 803.73125 490 803.75 490.11875 803.75 490.25 803.75 490.25 804.1 490.1 804.25 490.063671875 804.286328125 490 804.3 489.945703125 804.3677734375 489.85 804.4 489.79765625 804.415625 489.7 804.4 489.6576171875 804.4482421875 489.55 804.45
L 489.55 804.45
Q 489.559375 804.5822265625 489.55 804.7 489.6693359375 806.0650390625 489.75 807.35 489.78046875 807.7578125 489.8 808.15 489.891015625 809.316015625 489.95 810.4 490.09375 811.96640625 490.2 813.4 490.25 813.75 490.25 814.1 490.0984375 814.1 489.95 814.1 489.888671875 814.1 489.8 814.1 489.775390625 814.1 489.7 814.1 489.662109375 814.1 489.6 814.1
L 489.55 814.1
Q 489.55 816.3033203125 489.6 818.5 489.6337890625 818.84453125 489.65 819.2
L 489.55 825.1
Q 489.6037109375 825.8525390625 489.65 826.55 489.728125 842.547265625 489.9 845.05 489.9 845.1 490.25 845.1 490.25 845.45 490.1 845.6 489.9 845.8 489.55 845.8 494.0140625 847.14765625 499.55 847.4 503.873046875 847.6384765625 508.85 847.2 509.2 847.15 509.55 847.15 510.75 814.25 510.25 779.65 510.25 779.3 510.25 778.95 569.75 756.15 599.25 702.9 616.45 671.85 619.1 625.95 620.2828125 623.7322265625 619.85 619.85 619.8564453125 619.8064453125 619.85 619.75 619.8 619.4 619.8 619.05 619.8 618.75 619.8 618.4 619.8 611.15 619.8 603.9 619.8 603.55 619.85 603.2 620.3 599.25 619.1 597 618.25 573.75 613.75 554.25 598.4 487.15 568.2 435.3 567.380859375 433.8943359375 566.55 432.5 537.1052734375 382.5884765625 499.55 341.15
M 490.25 834.75
Q 490.1892578125 834.75 490.1 833.05 490.1640625 833.5640625 490.2 834.05 490.25 834.4 490.25 834.75
M 500.45 431
Q 500.6 431.3 500.6 431.65 500.6 436.8 500.95 441.95
L 501.3 441.95
Q 501.4 459.75 501.95 477.1 501.95 477.45 501.95 477.8 501.95 480.9 502.3 483.95 502.3 484 502.65 484 502.65 484.35 502.5 484.5 502.3 484.7 501.95 484.7 502.75078125 488.080859375 502.65 496.35 502.6720703125 497.396875 502.65 498.5 502.65 498.8 502.65 499.15 502.65 500.916015625 502.65 502.65 502.7556640625 506.766015625 503 510.85 503 510.9 503.35 510.9 503.35 511.25 503.15 511.4 503 511.55 502.65 511.55 503.5 514.85 503.35 519.15 503.35 519.5 503.35 519.85 503.35 527.4 503.7 535
L 504.05 535
Q 504.05 539.8 504.05 544.65 504.05 545 504.05 545.35 504.05 550.5 504.4 555.65
L 504.7 555.65
Q 504.85 575.3 505.4 591.5 505.4 591.85 505.4 592.2 505.4 594.95 505.75 597.65 505.75 597.7 506.1 597.7 506.1 598.05 505.95 598.2 505.75 598.4 505.4 598.4 506.3 602.2 506.1 612.2 506.1 612.5 506.1 612.85 506.1 617.7 506.45 622.5
L 506.8 622.5
Q 506.8 629.75 506.8 637 506.8 637.35 506.8 637.7 506.8 640.45 507.15 643.15 507.15 643.2 507.5 643.2 507.5 650.4 507.5 657.65 507.5 658 507.5 658.35 507.5 661.45 507.8 664.5 507.8 664.55 508.15 664.55 508.15 671.8 508.15 679 508.15 679.35 508.15 679.7 508.15 682.45 508.5 685.2
L 508.85 685.2
Q 508.85 685.55 508.7 685.75 508.5 685.9 508.15 685.9 509.05 689.75 508.85 699.7 508.85 700.05 508.85 700.4 508.85 704.15 509.2 707.95
L 509.55 707.95
Q 509.55 708.3 509.35 708.5 509.2 708.65 508.85 708.65 510.05 740.95 509.55 778.25 509.55 778.6 509.55 778.95 509.2 778.95 508.85 778.95 508.85 779.3 508.85 779.65 508.5 779.65 508.2 779.7 503.9 780.85 499.9 782.4 499.7103515625 782.4 499.55 782.35 499.414453125 782.31875 499.3 782.25 495.85 780.65 491.65 779.65 491.65 779.3 491.5 779.2 490.95 778.95 490.25 778.95 490.25 778.6 490.25 778.25 490.25 748.6 490.25 719 491.45 715.35 491 710.05 490.95 709.7 490.95 709.35 490.95 709 490.95 708.65 490.95 702.1 490.95 695.55 492.15 694 491.65 690.75 491.65 690.4 491.65 690.05 491.65 689.7 491.65 689.35 491.65 683.15 491.65 676.95 492.85 673.35 492.35 668 492.3 667.65 492.3 667.3 492.3 666.95 492.3 666.6 492.75 656.9 492.3 653.5 493.5 651.95 493.05 648.7 493 648.35 493 648 493 647.65 493 647.3 493.35 638.75 493 634.25 494.2 632.7 493.75 629.4 493.7 629.05 493.7 628.7 493.7 628.35 493.7 628.05 493.9 620.55 493.7 614.95 494.9 611.65 494.4 606.65 494.4 606.3 494.4 606 494.4 605.65 494.4 605.3 494.75 596.35 494.4 592.2 495.6 588.6 495.1 583.25 495.1 582.9 495.1 582.55 495.1 582.2 495.1 581.85 495.4 577.05 495.1 572.9 496.3 569.3 495.8 563.95 495.75 563.6 495.75 563.25 495.75 562.9 495.8 562.55 496.2 556.9 495.75 549.45 496.95 547.9 496.5 544.65 496.45 544.3 496.45 543.95 496.45 543.6 496.45 543.25 496.45 536.7 496.45 530.2 497.65 526.9 497.2 521.9 497.15 521.55 497.15 521.2 497.15 520.85 497.15 520.55 497.15 515.7 497.15 510.9 498.35 507.6 497.85 502.6 497.85 502.25 497.85 501.9 497.85 501.6 497.85 501.25
L 497.85 501.2
Q 497.85 499.525 497.85 497.85 497.85 493 497.85 488.15 499.3 470.35 499.2 450.95 499.2 450.6 499.2 450.25 499.3974609375 449.7068359375 499.55 449.1 500.3259765625 446.126953125 499.95 441.95 499.9 441.65 499.9 441.3 499.9 440.95 499.9 440.6 499.9 435.4 499.9 430.25 500.25 430.6 500.45 431
M 490.2 783.4
Q 490.1986328125 783.25 490.2 783.1
L 490.25 783.1
Q 490.25 783.2646484375 490.2 783.4
M 489.95 825
L 489.9 824.4 490.25 824.4
Q 490.25 824.75 490.1 824.95 490.0361328125 824.9978515625 489.95 825 Z"/>
</g>

<path id="Layer3_0_1_STROKES" stroke="#A61111" stroke-width="5" stroke-linejoin="round" stroke-linecap="round" fill="none" d="
M 847.2 151.85
L 847.15 151.9 847.2 151.9 847.2 151.85 Z
M 847.15 151.9
L 151.9 151.9 201.525 797.525 201.525 797.55 499.55 898.85 797.525 797.55 797.525 797.525 847.2 151.9
M 903.15 93.95
L 93.95 93.95 151.85 847.2 499.55 963.05 847.2 847.2 905.125 93.925
M 797.525 797.525
L 797.55 797.55 797.525 797.55"/>
</defs>

<g transform="matrix( 1, 0, 0, 1, 14.6,145) ">
<clipPath id="Mask_Mask_1">
<rect x="-14.6" y="-2" width="999.95" height="154.85" fill="#FFFFFF" stroke="none"/>
</clipPath>

<text clip-path="url(#Mask_Mask_1)" writing-mode="lr"><tspan x="233.35" y="118.1" baseline-shift="0%" font-family="Source Code Pro Semibold" font-size="120" fill="#A61111" xml:space="preserve">MongoDB</tspan></text>
</g>

<g transform="matrix( 1, 0, 0, 1, 0,0) ">
<use xlink:href="#Layer3_0_FILL"/>

<use xlink:href="#Layer3_0_1_STROKES"/>
</g>
</svg>
