
<svg xmlns="http://www.w3.org/2000/svg" version="1.1" xmlns:xlink="http://www.w3.org/1999/xlink" preserveAspectRatio="none" x="0px" y="0px" width="1000px" height="1000px" viewBox="0 0 1000 1000">
<defs>
<g id="Layer25_0_FILL">
<path fill="#A71212" stroke="none" d="
M 463.9 387.7
Q 459.1 382.9 452.3 382.9 445.45 382.9 440.65 387.7 435.85 392.5 435.85 399.35 435.85 406.15 440.65 410.95 445.45 415.75 452.3 415.75 459.1 415.75 463.9 410.95 468.75 406.15 468.75 399.35 468.75 392.5 463.9 387.7
M 542.05 779.6
Q 546.85 784.4 553.65 784.4 560.5 784.4 565.3 779.6 570.1 774.8 570.1 767.95 570.1 761.15 565.3 756.35 560.5 751.55 553.65 751.55 546.85 751.55 542.05 756.35 537.2 761.15 537.2 767.95 537.2 774.8 542.05 779.6 Z"/>
</g>

<path id="Layer26_0_1_STROKES" stroke="#A71212" stroke-width="5" stroke-linejoin="round" stroke-linecap="round" fill="none" d="
M 847.15 151.9
L 847.2 151.9 847.2 151.85 847.15 151.9 151.9 151.9 201.525 797.525 201.525 797.55 499.55 898.85 797.525 797.55 797.525 797.525 847.2 151.9
M 905.125 93.925
L 847.2 847.2 499.55 963.05 151.85 847.2 93.95 93.95 903.15 93.95
M 797.525 797.55
L 797.55 797.55 797.525 797.525"/>

<path id="Layer25_0_1_STROKES" stroke="#A71212" stroke-width="5" stroke-linejoin="round" stroke-linecap="round" fill="none" d="
M 430.2 589.4
L 587.5 589.45
Q 588.15 589.45 588.75 589.45 597.5 589.1 604.2 583.95 604.55 583.7 604.85 583.45 606.05 582.45 607.15 581.3 608.35 580.2 609.3 578.95 615.3 571.65 615.3 561.85
L 615.35 561.85 615.35 482.45 692.6 482.45
Q 713.1 482.45 727.5 504.05 742 525.7 742 556.35
L 742 610.95
Q 742 641.6 727.5 663.25 713.1 684.9 692.6 684.9
L 604.25 684.9 604.2 684.9 503.15 684.9 503.1 709.85 604.2 709.85 604.2 773.3
Q 604.2 785.06875 597.05 794.85 591.76953125 802.0658203125 582.6 808.2 560.9 822.7 530.3 822.7
L 475.7 822.7
Q 445.05 822.7 423.4 808.2 401.75 793.75 401.75 773.3
L 401.75 622.2
Q 401.75 621 401.75 619.95 401.75 619.45 401.75 619.05 401.75 617.6 401.75 617.2 401.75 605.65 409.85 597.5 418 589.35 429.55 589.35
M 423.9 358.75
L 431.5 354.35
Q 450 344.95 474.15 344.65 474.9 344.65 475.7 344.65
L 530.3 344.65
Q 560.9 344.65 582.6 359.1 604.2 373.6 604.2 394.05
L 604.2 549.25
Q 604.25 549.85 604.25 550.5 604.25 551 604.25 551.5 604.201953125 551.6443359375 604.2 551.75 603.85 560.9 598.2 567.85 597.25 569.05 596.1 570.2 594.95 571.35 593.75 572.3 586.8 577.95 577.65 578.3 577.05 578.35 576.4 578.35 576 578.35 575.6 578.35 575.4228515625 578.3056640625 575.2 578.3
L 417.7 578.35
Q 417.2 578.3625 416.75 578.4 408.3 578.85 401.75 583.85 400.2 585.05 398.75 586.45 390.75 594.5 390.65 605.9
L 390.6 605.9 390.55 684.9 313.35 684.9
Q 292.9 684.9 278.4 663.25 264 641.6 264 610.95
L 264 556.35
Q 264 525.7 278.4 504.05 292.9 482.45 313.35 482.45
L 503.35 482.45 503.4 480.1 503.4 457.45 401.75 457.45 401.75 394
Q 401.75703125 382.98203125 408.05 373.7 408.472265625 373.0794921875 408.925 372.475 412.96015625 366.9703125 419.25 362.1 420.95 360.75 422.85 359.5 423.1 359.3 423.4 359.1 423.65 358.95 423.9 358.75 Z
M 503.35 482.45
L 503.4 482.45 503.4 480.1
M 604.25 551.5
L 604.2 551.5 604.2 551.75
M 604.2 549.25
L 604.2 551.5
M 575.2 578.3
L 575.6 578.3 577.65 578.3
M 575.6 578.35
L 575.6 578.3
M 416.75 578.4
L 416.75 578.35 417.7 578.35
M 604.25 684.9
L 604.2 684.85 604.2 684.9"/>
</defs>

<g transform="matrix( 1, 0, 0, 1, 0,0) ">
<use xlink:href="#Layer26_0_1_STROKES"/>
</g>

<g transform="matrix( 1, 0, 0, 1, 0,0) ">
<use xlink:href="#Layer25_0_FILL"/>

<use xlink:href="#Layer25_0_1_STROKES"/>
</g>

<g transform="matrix( 1, 0, 0, 1, 14.6,145) ">
<clipPath id="Mask_Mask_1">
<rect x="-14.6" y="-2" width="999.95" height="154.85" fill="#FFFFFF" stroke="none"/>
</clipPath>

<text clip-path="url(#Mask_Mask_1)" writing-mode="lr"><tspan x="269.35" y="118.1" baseline-shift="0%" font-family="Source Code Pro Semibold" font-size="120" fill="#A71212" xml:space="preserve">PYTHON</tspan></text>
</g>
</svg>
