
<svg xmlns="http://www.w3.org/2000/svg" version="1.1" xmlns:xlink="http://www.w3.org/1999/xlink" preserveAspectRatio="none" x="0px" y="0px" width="1000px" height="1000px" viewBox="0 0 1000 1000">
<defs>
<g id="Layer1_0_FILL">
<path fill="#33FF33" fill-opacity="0.996078431372549" stroke="none" d="
M 665.6 337.85
Q 663.949609375 333.646875 662.55 329.2 660.3 322.15 658.7 314.45 653.05 286.9 652.5 255.25 651.55 204.45 640.7 162.8 630.2 122.55 606.7 94.5 583.15 66.45 540.4 57.6 538.65 57.6 537.1 57.05 536.05 56.7 535.15 56.7 525.1 57.15 519.4 54.1 518.55 54.1 517.65 54.1 511.55 54.1 505.4 54.1
L 505.4 54.95
Q 491.95 55.5 480.95 57.6 465.1 61.9 449.9 67.5 435 72.9 422.7 81.3 406.95 92.05 397.6 108.65 378.9 141.8 379.4 194 379.5 207.15 380.9 220.1 385.8 265.55 385.6 318.2 385.6 323.9 385.35 329.2 384.3 349.5 379.5 365.4 376.283984375 369.2373046875 373.35 373.25 372.2494140625 374.706640625 371.2 376.2 349.5 406.25 326.95 435.3 304.35 464.35 290.45 501.95 276.55 539.7 262.9 577.3 260.2 584.6 256.8 590.85 252.8 598.15 248.65 606.1 239.9 622.9 241.15 650.5 241.3 654 242.45 657.05 245 663.45 243.05 666.25 237.3 671 232.5 676.65 224.45 686.1 218.05 697.4 208.6 714 189.1 721.25 179.95 724.65 169.45 725.8 138.85 729.05 127.65 750.2 126.5 769.8 131.5 783.25 136.45 796.45 133.05 816.4 129.4 837.65 120.65 855.15 119.757421875 869.75234375 126.05 877.45 128.5755859375 880.526953125 132.25 882.5 149.05 891.45 171.45 894.7 205.55 899.65 236 907.9 276.55 918.75 313.4 933 340.15 943.5 377.75 942.6 401.35 934.75 411.65 913.2 411.85 912.85 412.7 912.85 455.4 903.95 503.65 901.4 557.3 898.6 600.15 906.4 609.15 907.95 615.6 911.1 624.25 925.2 636.05 936.2 642.35 942.1 651.05 944.45 656.7 946 661.15 946.3 667.55 946.65 669.85 949.6 679.45 949.6 689.05 949.6 689.95 949.6 690.8 949.6 704.55 944.1 716.2 936.15 727.9 928.1 739 919.35 768.05 896.5 801.35 878.4 826.3537109375 864.8564453125 850.4 850.3 858.6884765625 845.316796875 866.85 840.2 882.75 830.25 883.2 804.45 876.85 788.95 860.75 782.75 844.55 776.6 833.35 765.1 823.85 755.35 823.4 737.95 822.5 698.95 801 682 806.95 662.6 809.4 638.45 811.75 614.2 807.65 589.4 806.7 583.6 805.05 577.4 797 547.85 783.35 522.9 765.05 489.7 744.85 458.2 741.2 452.45 737.6 446.75 717.5 414.85 695.2 385.8 694.3 384.65 693.45 383.6 681.9 369.1 672.65 352.55 668.6791015625 345.576953125 665.6 337.85
M 649.8 482.25
Q 664.15 518.9 676.2 559.2 682.05 578.9 681.65 606.8 681.35 627.1 680.15 643.6 678.9677734375 661.242578125 674.3 674.2 673.8482421875 675.504296875 673.35 676.75 651.9 673.7 641.5 681.55 640.95 682 640.1 682 634.75 689.7 635.65 704.8 635.7 706.5 635.65 708.3 633.65 742.85 633.1 778.2 611.5 808.2 578.95 827.35 570.75 832.15 562.45 836.15 553 840.65 542.35 843.5 541.3 843.8 540.25 844.3 531.4 848.75 519.4 850.1 476.5 855.05 426.7 853.4 415.1 844.05 405.65 832.5 396.2 820.85 386.5 809.7 390.05 805.4 396.55 803.2 404.4 800.5 408.6 792.8 412.2 786.4 410.95 774.7 402.25 757.2 387.8 745.55 359.1 722.5 331.5 698.45 324.3955078125 692.284375 318.25 685.2 312.34921875 678.358203125 307.35 670.65 303.75 665.05 301.9 657.7 297.2 638.35 299.05 612.05 301.75 601.65 303.95 590.95 308.4 568.9 318 551.6 324.55 539.65 330.35 526.25 338.3 507.9 345.3 488.1 352.05 469.15 359.55 449.8 366.7 431.35 377.75 416.15 385.860546875 404.949609375 391.8 391.7 396.6431640625 380.9529296875 400.05 368.85 400.5 367.15 401.2 365.75 401.35 365.4 402.25 365.4 402.25 349.7 402.25 333.95 402.25 333.05 402.25 332.2 414.3 344.6 427.7 355.9 440.95 366.9 458.2 374.15 465.2 374.15 472.2 374.15 473.05 374.15 473.95 374.15 482 369.1 491.1 364.65 508.5 356.25 524.75 346.25 540.5 336.65 558.35 329.2 565.05 326.4 572.05 323.95 573.65 323.45 575.4 323.45 577.3 326.35 579.25 329.2 597.75 357.55 611.6 391.15 611.7076171875 391.4169921875 611.8 391.65 615.2759765625 400.2259765625 619.3 409.05 635 444.85 649.8 482.25
M 680.3 719
Q 679.1 726.95 681.7 733.95 688.3 751.8 706.55 758.95 733.9705078125 760.1201171875 752.45 752.35 770.3701171875 744.919921875 779.95 729.15 784.2 722.05 789.75 716.1 790.5 715.25 792.25 715.25 797.85 722.85 797.95 734.45 798.1 774.1 823.05 788.15 831.7 792.95 841.15 797.6 850.4 802.25 853.5 813.15 849.8 822.6 841.15 827 836.4673828125 829.337890625 831.8 831.7 802.214453125 846.8029296875 773.7 863.35 745.85 879.55 723.25 901.6 706.9 917.6 676.85 919.85 657.4 912.1 651.55 890.4 651.45 890.15 650.6 890.15 650.6 874.4 650.6 858.65 650.6 857.75 650.6 856.9 661.8 816.5 663.45 767.7 663.9 754.4 663.45 741.45 662.85 724.85 664.5 708.4 664.6 707.35 665.2 706.05 666.15 703.7 669.85 704.75 682.5 703.35 680.3 719
M 501.5 197.8
Q 501.9 195.75 503.25 193.75 512.35 179.05 528.15 171.3 536.9 171.3 545.65 171.3 546.5 171.3 547.4 171.3 583.85 184.65 580.7 237.75 580.65 238.6 580.65 239.5 576.15 249.9 570.75 259.1 565.4 268 554.2 270 553.5 270.1 552.65 269.25 543.4 265.05 553.6 259.15 554.4 258.75 555.25 257.7 557.9 254.35 559.65 250 559.65 240.35 559.65 230.75 559.65 229.9 559.65 229 555.6 215.55 543.75 210.1 543.05 209.75 542.15 209.75 524.9 208.25 520.4 220 520.3 220.25 519.4 220.25 512.85 237.65 519.15 253.55 519.4 254.35 519.4 255.25 510.75 251.65 501.85 248.5 501.05 248.25 500.2 248.25 493.25 235.05 494.85 213.25 494.95 212.4 494.95 211.5 499.75 206.7 501.5 197.8
M 406.35 190.95
Q 414.75 179.4 435.45 180.05 463.7 194.55 461.7 239.5 461.7 240.35 461.7 241.25 452 248.15 442.9 255.75 442.45 256.1 442.45 257 440.7 254.25 441.6 246.4 442.45 238.6 442.45 230.75 439.5 224.1 436.5 218 432.85 210.65 421.45 211.5 411.4 213.7 407.85 222.2 407.5 222.9 407.5 223.75 406.7 238.55 409.05 250 409.25 250.85 409.25 251.75 416.55 262.75 429.35 268.35
L 428.3 268.7
Q 426.7 269.25 424.95 269.25 421.1 278.5 411.3 273.8 410.95 273.6 410.95 272.75 391.4 257.35 393.4 220.25 393.5 219.4 393.5 218.5 397.85 202.75 406.35 190.95
M 454.45 272.4
Q 461.85 266.8 470.45 262.25 495.65 263.3 511.45 273.25 513.3 274.5 515.55 275.35 527.9 280 540.85 283.5 555.45 287.4 557.9 302.45 549.95 313.75 537.1 320.3 528.4 324.65 519.95 329.2 500 339.9 480.95 351.45 472.2 351.45 463.45 351.45 462.55 351.45 461.7 351.45 443.7 342.6 430.3 329.2 421.9 320.8 415.25 310.7 414.45 309.45 414.45 307.7 414.45 305.95 414.45 304.2 434.05 287.85 454.45 272.4
M 157.8 776.35
Q 156.05 765.5 159.1 758.95 164 750.75 174.85 748.65 197.05 744.45 216.4 736.85 226.55 732.8 231.6 723.45 239.75 708.4 249.55 695.1 252.7 690.75 257.05 687.25 278.55 691.95 289.95 707.2 291.2978515625 709.0248046875 292.6 710.85 312.843359375 738.74140625 330.15 770.4 348.2 803.4 371.2 831.7 377.55 839.6 382.55 848.4 387.35 856.9 391.75 865.65 391.75 873.5 391.75 881.4 391.75 882.25 391.75 883.15 381.7 904.55 363.5 917.7 362.9 918.1 362 918.1 344.15 918.45 330.7 914.2 291.8 901.75 255.3 886.7 236.7 879.05 211.75 876.5 205.8 875.9 199.25 874.9 180.55 872.1 164.35 867.4 163.5 867.4 162.6 867.3 151.0181640625 865.7103515625 149.95 853.55 149.6087890625 849.6439453125 150.35 844.65 153.35 843.25 153 837.65
L 153.85 837.65
Q 153.85 836.8 153.85 835.9 153.85 834.15 153.85 832.4 161.05 818.6 160 797.45 159.45 786.6 157.8 776.35 Z"/>
</g>
</defs>

<g transform="matrix( 1, 0, 0, 1, 0,0) ">
<use xlink:href="#Layer1_0_FILL"/>
</g>
</svg>
