
<svg xmlns="http://www.w3.org/2000/svg" version="1.1" xmlns:xlink="http://www.w3.org/1999/xlink" preserveAspectRatio="none" x="0px" y="0px" width="1000px" height="1000px" viewBox="0 0 1000 1000">
<defs>
<g id="Layer2_0_FILL">
<path fill="#A71212" stroke="none" d="
M 598.75 470.15
L 577.35 438.15 516.3 478.8 517.85 412 477 412 478.35 478.6 418.1 437.6 397.3 469.75 465.45 510.4 397.1 550.65 418.1 582.6 478.55 542.15 477 608.8 518.05 608.8 515.9 540.45 577.55 582.4 598.9 550.65 529.8 510.2 598.75 470.15
M 428.4 73.6
Q 421.55 74.4 415.25 75.35 410.85 75.95 407.3 76.6 390.55 79.7 375.85 84.1 355.85 90.1 337.4 97.4 334.85 98.4 332.7 99.3 314.2 107.05 297.85 116.35 281.2 125.7 265.6 135.85 249.95 146.05 235.4 157.15 220.7 168.4 207 180.5 199.968359375 186.687890625 193.4 193.3 187.1388671875 199.631640625 181.3 206.35 172.35 216.75 163.95 227.45 152.55 242 141.85 257.05 139.1 260.9 136.4 265.05 126.35 280.55 117.8 297.8 109.15 315 101.7 333.05 94.05 351.55 87.95 371.3 81.8 390.9 77.45 412.45 73.05 433.75 71.05 457.9 71 458.4 71 458.85 71.25 466.05 69.7 471.1 69.7 496.9 69.7 522.7 69.7 523.15 69.7 523.6 71.25 528.6 71 535.85 71 536.3 71.05 536.75 73.2 560.8 77.55 582.2 81.95 603.65 87.9 623.4 93.9 643.35 101.25 661.8 108.6 680.25 117.05 697.25 125.75 714.75 135.6 730.5 137.85 734.1 140.05 737.45 150.4 753.05 161.55 767.7 172.75 782.35 184.65 796.25 185.45 797.2 186.95 797.45 178.2 806.65 169.25 815.6 156.3 828.5 143.2 841.2 143.2 841.65 143.2 842.1 133 851.15 123.55 860.95 110.8 874 97.7 886.7 97.6 889.4 101.25 888.95 101.65 888.9 102.05 888.95 108.0275390625 889.2369140625 113.95 889.55 132.7884765625 890.5564453125 151.05 891.85 163.4 892.75 175.55 893.6 199.8 895.3 224.55 896.85 248.35 898.4 272.7 899.95 296.8 901.55 321.65 903.15 345.25 904.7 369.8 906.2 377.85 906.65 386.45 906.85 386.45 881 386.1 855.2 385.85 838.75 385.55 821.95 385.55 821.5 385.55 821.1 385.55 795.25 385.55 769.45 385.55 743.65 386.1 717.85 386.2 710.6 384.7 705.6 384.7 705.15 384.7 704.7 384.7 696.4 384.7 688.1 384.7 685.05 384.7 681.95 384.7 656.15 384.7 630.35 384.7 624.485546875 384.85 618.65 385.0568359375 611.380078125 385.5 604.15 385.85 599 382.95 597.95 382.95 598.4 382.95 598.85 377.1 603.5 372.05 608.95 359.5 622.2 346.8 635.35 334.1 648.45 321.45 661.6 308.7 674.65 296.05 687.85 292.8 691.15 289.8 694.6 277.75 708.45 263.95 720.45 253.45 709.1 243.9 696.8 232.6 682.25 222.6 666.35 220.1 662.35 217.7 657.85 208.75 641.35 201.4 623.15 193.85 604.65 188.1 584.15 182.5 564.35 179.95 541.1 178.65 529.3 178.1 517.4 177.3 499.1 177.3 480.7 178.85 475.7 178.65 468.45 178.65 468.05 178.7 467.55 180.9 443.6 185.95 422.95 191 402.1 197.95 383.45 205.05 364.5 214 347.7 222.9 330.75 233.35 315.35 243.8 300 255.75 286.2 262.874609375 278.0408203125 270.5 270.4 275.75234375 265.098046875 281.25 260.05 294.75 247.7 309.9 236.9 314.45 233.7 319.2 230.65 335 220.6 352.05 211.55 360.5 207.15 370.5 203.7 371.55 203.35 372.6 202.95 391.45 195.65 411.05 189.7 429.7 184.05 449.45 179.7 449.55 153.8 448.5 129.8 447.35 104.4 446.15 79.95 445.95 76.05 445.95 72.1 445.5 72.1 445.05 72.1 442.9 72.1 440.7 72.1 438.7 73.65 434.5 73.35 431.3 73.2 428.4 73.6
M 830.05 106.2
Q 825.4 106.1 821.25 105.85 796.2 104.65 771.45 103.8 764.9 103.6 759.15 103.3 734.05 102 709.3 101.2 702.8 100.95 697 100.65 672 99.35 647.2 98.4 640.85 98.15 634.95 98.1 621.25 98.05 610.45 95.7 610.45 121.55 610.6 147.35 610.7 160.2 611 172.7 611.3 185.4 611.3 198.1 611.3 223.9 611.3 249.7 611.3 271.6 611.75 293.45 611.75 293.9 612.2 294.35 612.2 312.3 612.2 330.2 612.2 330.65 612.2 331.1 612.2 356.9 612.2 382.7 612.2 386.9517578125 612.3 391.2 612.4080078125 396.1517578125 612.65 401.1 612.65 401.55 613.05 401.95 619.3 396.85 624.2 390.4 624.45 390.15 624.45 389.7 628.4 386.2 632.05 382.45 644.75 369.35 657.45 356.25 670.2 343.15 682.85 330.05 695.55 316.9 708.2 303.8 720.95 290.65 733.8 277.7 737.1 281.9 740.55 286 752.25 300 762.3 315.6 772.45 331.4 781.3 348.05 790.4 365.05 797.85 383.5 805.2 401.9 810.45 422.85 815.55 443.2 818.05 466.65 819.3 478.4 819.6 491.2 820.25 517.75 817.35 540.25 815.85 552.25 813.75 563 812.65 568.75 811.45 573.65 806.3 594.75 799 613.55 791.8 631.9 783.2 649.35 774.7 666.45 764.7 682.15 754.65 698 742.5 711.65 742.1 712.15 741.75 712.65 735.78125 721.2216796875 728.35 728.25 727.515625 729.0662109375 726.65 729.85 713.05 742.1 698.25 753.25 683.55 764.25 667.4 774 664.45 775.8 661.65 777.55 645.6 787.6 628.15 796.15 611 804.6 590.55 810.45 570.85 816.05 547.45 818.45 547.35 844.35 548.6 868.4 549.2 878.85 549.75 889.3 550.85 908.65 550.95 929.6 551.8 929.6 552.7 929.6 553.15 929.6 553.55 929.6 553.55 929.15 553.55 928.7 576.25 925.6 596.6 920.6 617.75 915.45 636.9 909.35 656.85 902.95 674.55 895.2 683.95 891.1 692.75 886.8 710.15 878.35 726.15 868.7 742.3 858.9 756.8 847.65 771.4 836.35 784.7 823.85 794.842578125 814.353125 804.35 804.25 807.394921875 801.093359375 810.35 797.85 813.45 794.4 816.6 791 828.9 777.45 840.2 763.1 851.65 748.6 861.7 732.8 871.7 717.05 880.4 700.1 889.2 682.95 896.9 664.6 904.5 646.55 910.25 626.15 915.85 606.3 919.7 584.75 923.65 562.5 925.85 539.3 926.3 534.55 926.7 529.75 926.75 529.3 927.2 528.85 927.2 528.4 927.2 527.95 927.2 502.15 927.2 476.35 926.75 476.35 926.75 476.3 925.3 451.55 921.5 429.2 920.6 423.9 919.65 418.55 916.75 401.95 912.55 387 906.95 366.65 900.1 347.7 896.6 338.05 892.85 329.1 885.15 310.6 876.1 294.05 866.9 277.2 856.75 261.65 846.5 245.95 834.4 232.25 834 231.8 833.65 231.3 822.7 216.4 809.95 203.35 811.6 200.6 813.75 198.4 826.65 185.5 839.25 172.3 843.95 167.35 848.7 162.5 861.45 149.4 874.3 136.45 887.15 123.5 899.2 109.7 898.122265625 108.3412109375 895.2 108.3 895.004296875 108.296875 894.8 108.3 887.3 108.5 879.95 108.15 855.15 106.95 830.05 106.2 Z"/>
</g>
</defs>

<g transform="matrix( 1, 0, 0, 1, 0,0) ">
<use xlink:href="#Layer2_0_FILL"/>
</g>
</svg>
