
<svg xmlns="http://www.w3.org/2000/svg" version="1.1" xmlns:xlink="http://www.w3.org/1999/xlink" preserveAspectRatio="none" x="0px" y="0px" width="1000px" height="1000px" viewBox="0 0 1000 1000">
<defs>
<g id="Layer1_0_FILL">
<path fill="#33FF33" fill-opacity="0.984313725490196" stroke="none" d="
M 771.75 231.7
Q 764.7158203125 231.617578125 757.4 231.85 700.35 233.5 650.9 244.45 645.1 229.8 639.35 214.25 623.45 170.5 600.45 132.65 577.8 95.35 540.85 71.7 529.8 64.55 513.6 63.3 481.75 60.95 462.6 72.55 453.1 78.25 445 85.55 412.95 114 392.5 154.15 391.85 155.35 391.35 156.6 372.3 198.25 358.1 244.45 343.45 242.7 331.05 240.15 283.524609375 230.4115234375 232.65 232.55 226.8498046875 232.800390625 221 233.2 193.05 235 171.25 243 126.3 259.4 114.4 307.9 114.2 333.7 119.95 354.6 125.45 374.7 133.55 392.5 143.4 414.1 155.95 431.8 181.25 467.35 210.65 498.35 198.15 513.5 184.05 527.05 183 528.05 182.2 529.2 166.1 551.1 150.35 573.5 125.55 608.85 115.45 659.95 113.05 672.1 116.15 688.5 120.75 713.15 135.8 728.95 150.75 744.6 172.35 752.8 200.986328125 763.7767578125 237.55 765.9 257.669140625 767.0880859375 280.15 765.6 308.2 763.85 333.3 757.6 347.55 754.05 358.1 756.4 363.4 767.45 367.6 780.55 382.05 825.6 404.25 863.4 426.7 901.75 465 923.6 472.95 928.2 481.45 930.65 506.45 938 527.95 930.15 550.15 921.85 565.85 906.7 596.45 877 616.7 837.55 637.4 797.15 652.95 752.3 688.2 761.1 728.65 765.8 748.0248046875 768.0833984375 767.3 767.2 776.7404296875 766.782421875 786.15 765.6 814.35 762.1 837.05 753.6 874.65 739.5 887.65 700.8 896.45 674.65 889.25 647.65 876.6 599.3 851.8 563.8 827 528.05 798.35 496.3 805 489.75 811.35 482.6 814.75 478.9 817.8 475 838.2 450.15 856.5 423.1 880.8 387.25 890 336.5 895.2 307.7 884.05 285.5 864 245.35 812.8 235.75 793.5392578125 232.08671875 771.75 231.7
M 733.95 269.5
Q 750.272265625 268.45703125 767.65 268.4 813.5 268.2 839.3 287.45 848.75 294.4 853.65 305.85 856.3 339.25 847 359.85 841.85 370.9 836.25 381.05 814.85 419.65 786.9 452.3 779.4 461 771.75 469.7 738.15 442.85 704.15 416.45 691.45 406.6 677.55 398 674.91328125 364.4416015625 669.95 333.55 666.648046875 312.8759765625 662.3 293.4 661.15 288.45 660.35 283.45 660.15 282.3 659.1 281.3 693.177734375 272.226953125 733.95 269.5
M 680.6 449.2
Q 680.6 448.2 679.6 447.15 714.6 467.45 741.55 495.8 742.05 496.3 743.05 496.3 731 511.9 715 523.75 698.75 535.95 683.7 549.55 680.1 539.85 680.5 525 681.65 487.1 680.6 449.2
M 746.45 544.65
Q 758.2 535 769.7 525 802.15 552.95 823.85 591.15 835.1 611.1 845.15 631.55 857.1 656.05 853.65 688.8 834 729.55 771.75 728.85 763.55 728.75 755.35 728.55 740.902734375 728.03203125 726.95 726.85 715.3294921875 725.8826171875 704.05 724.45 681.55 721.55 663.1 715.85 659.7 714.8 661.15 709.3 665.9646484375 689.8611328125 669.3 669.2 674.2533203125 638.341796875 675.9 604.75 676.1 599.3 679.6 598.7 713.35 572.1 746.45 544.65
M 509.6 99.05
Q 510.65 99.05 511.65 99.05 552.2 118.9 574.1 157.8 595.75 196.2 610.9 242.1 612.7 247.8 614.05 254.7 569.6 270.65 526.4 288.35 515.95 292.65 505.5 297.7 462.95 279.85 419.1 264 406.6 259.4 395.85 253.15 394.95 252.65 394.95 250.6 394.95 249.55 394.95 248.55 409.4 202.55 430.15 163.75 441.2 143.3 455.45 126.9 470.7 109.3 493.25 99.05 501.45 99.05 509.6 99.05
M 384.7 293.6
Q 392.7 291.75 403.65 296.35 418 302.3 432 307.4 446.55 312.65 458.45 320.2 419.2 341.4 381.2 364.35 379.6 365.25 377.95 366.5 372.6 370.5 370.35 367.3 372.6 358.3 373.85 348.75 377.65 319.3 384.7 293.6
M 344.55 306.1
Q 340.58671875 321.387109375 337.5 337.4 336.260546875 344.0486328125 335.15 350.8 333.4 362.1 332.6 375.4 332.5 376.5 332.5 377.55 333 389.3 329.4 395.95 323.4 405.3 313.55 411.15 299.6 419.4 287.55 429.75 286.4 430.8 285.2 431.8 262.05 451.45 239.3 471.75 208.5 442.15 183.8 406.3 159.15 370.7 151.35 318.15 151.25 317.15 151.25 316.1 153.7 310.4 155.15 303.85 155.35 302.8 155.35 301.8 181.65 267.7 243.4 267.9 256.4220703125 267.9447265625 268.75 268.65 311.5201171875 271.0509765625 345.8 281.3 348.25 291.95 344.55 306.1
M 440.9 373.05
Q 457 363.8 473.05 355.65 488.95 347.65 503.5 338.65 544.1 358.4 582.2 380.1 595.5306640625 387.6818359375 608.05 395.45 610.5724609375 396.9900390625 613.05 398.55 624.7 405.9 634.45 414.5 636.7 416.35 639.85 418.1 640.7 418.5 640.7 420.55 644.25 432.3 644.25 449.2 644.25 463.05 644.35 477.9 644.65 527.95 642.7 576.2 623.5513671875 590.2587890625 603.1 603 586.4404296875 613.4703125 568.9 623.05 537.05 640.5 505.5 658.1 465.4 637.9 426.7 615.4 423.2 613.45 419.4 611.3 410.669921875 606.422265625 402.1 601.35 384.83203125 591.159765625 368.3 580.25 362.5 559.5 362.8 531.15 362.9 518.1 362.6 504.5 362.2 491.2 362.2 477.9 365.75 466.1 364.95 449.2 364.15 432.75 366.3 418.5 382.21015625 408.18984375 398.35 398.25 419.424609375 385.3296875 440.9 373.05
M 620.3 291.85
Q 621.2 291.55 622.25 291.55 632.366015625 326.3333984375 636.45 367 636.486328125 367.1634765625 636.5 367.3 636.6 368.35 636.6 369.35 635.8314453125 368.89375 635.05 368.45 597.891796875 346.4302734375 558.85 326.15 552.95 323.05 548.55 318.15 585.2 305.65 620.3 291.85
M 223.95 538.4
Q 230.8 530.8 239.3 525 270.45 554.25 305.65 579.15 318.95 588.55 329.4 600.75 333 608.45 332.5 621.25 332.5 622.25 332.6 623.4 334.9986328125 644.94609375 338.65 664.85 339.321484375 668.6103515625 340.05 672.3 344.45 694.25 347.85 717.45 314.887109375 726.5251953125 275.3 728.15 257.9947265625 728.9005859375 239.4 728.2 226 727.7 212.6 726.2 172.95 721.35 155.35 694.95 152.9 684.1 151.35 672.4 151.25 671.4 151.25 670.35 153.9 661.75 156.3 652.15 162.1 628 173.15 608.65 195.2 569.95 223.95 538.4
M 266.45 497.85
Q 265.95 497.35 265.95 496.3 294.7 471.85 324.8 448.6 325.3 448.2 325.3 447.15 328.4 456.5 327.15 469.9 325.3 490.15 325.2 510.65 325 531.45 327.35 549.55 294.5 526.2 266.45 497.85
M 447.15 672.1
Q 452.6 675.3 460.45 676.5 425.65 693.9 386.65 706.95 385.75 707.25 384.7 707.25 378.45 678.65 373.95 647.95 372.766796875 640.049609375 371.3 632.2 370.83515625 629.7759765625 370.35 627.35 372.18671875 628.4123046875 374 629.45 410.496484375 650.5837890625 447.15 672.1
M 396.3 748.4
Q 395.95 747.15 395.55 745.95 394.95 744.1 394.95 742.05 441.45 728.1 482.9 708.95 493.25 704.15 503.5 699.05 545.85 717.05 590 732.3 603.6 737.15 616.1 742.05 602.3 788.65 579.55 827.05 568.4 845.85 556 864.4 546.15 878.95 531.1 888.95 517.4 898.3 493.25 897.7 452.9 877.7 433.45 836.45 432.85 835.2 432.1 834 408.65 796.95 396.3 748.4
M 630 629.9
Q 632.1962890625 628.63828125 634.55 627.35 637.115625 632.187109375 637.35 637.25 637.5861328125 641.69140625 636.05 646.3 634.55 650.9 633.8 655.95 630.35 680.5 624.3 703.15 616.3 705 605.25 700.8 575.35 689.5 548.55 676.5 588.15 655.75 625.75 632.5 627.7931640625 631.213671875 630 629.9
M 559.55 443.95
Q 555.3353515625 439.2201171875 550.45 435.1 533.8 420.95 503.5 420.65 495.3 420.55 487.4 422.2 463.15 427.3 447.9 442.75 446.645703125 444.020703125 445.45 445.35 432.0302734375 460.1970703125 425.65 482 425.65 495.3 427.6 508.3 432.0384765625 537.3212890625 449.3 554.2 462.3728515625 566.98203125 482.8 572.8 488.75 574.55 495.3 574.55 534.638671875 574.78203125 556.4 556.3 562.7828125 550.9064453125 567.65 543.9 580.15 525.9 580.45 496.3 580.55 481.65 575.85 470.2 569.63984375 455.3095703125 559.55 443.95 Z"/>
</g>
</defs>

<g transform="matrix( 1, 0, 0, 1, 0,0) ">
<use xlink:href="#Layer1_0_FILL"/>
</g>
</svg>
