
<svg xmlns="http://www.w3.org/2000/svg" version="1.1" xmlns:xlink="http://www.w3.org/1999/xlink" preserveAspectRatio="none" x="0px" y="0px" width="512px" height="521px" viewBox="0 0 512 521">
<defs>
<g id="Layer1_0_FILL">
<path fill="#FFFFFF" stroke="none" d="
M 235 427.5
L 491.25 427.5 491.25 391.3 235 391.3 235 427.5
M 67.5 92.5
L 20 140 140 260 20 380 67.5 427.5 235 260 67.5 92.5 Z"/>
</g>

<g id="Layer1_1_FILL">
<path fill="#000000" stroke="none" d="
M 482.5 33.2
Q 450.5 0.6 405.15 0.6
L 109.85 0.6
Q 64.5 0.6 32.45 33.2 0.5 65.85 0.5 112.05
L 0.5 413
Q 0.5 459.2 32.45 491.8 64.5 524.45 109.85 524.45
L 405.15 524.45
Q 450.5 524.45 482.5 491.8 514.55 459.2 514.55 413
L 514.55 112.05
Q 514.55 65.85 482.5 33.2 Z"/>
</g>

<g id="Layer0_0_FILL">
<path fill="#FFFFFF" stroke="none" d="
M 470.6 144.25
L 412 144.25 368.15 242.4 324.15 144.25 265.55 144.25 265.55 339.85 313.1 339.85 313.1 208.9 349.35 293.9 384.15 293.9 420.45 208.9 420.45 339.85 470.6 339.85 470.6 144.25
M 269.1 416.6
L 465.7 416.6 465.7 380.4 269.1 380.4 269.1 416.6
M 79.6 81.6
L 32.1 129.1 152.1 249.1 32.1 369.1 79.6 416.6 247.1 249.1 79.6 81.6 Z"/>
</g>

<path id="Layer1_0_1_STROKES" stroke="#FFFFFF" stroke-width="10" stroke-linejoin="round" stroke-linecap="round" fill="none" d="
M 235 260
L 67.5 427.5 20 380 140 260 20 140 67.5 92.5 235 260 Z
M 491.25 427.5
L 491.25 391.3 235 391.3 235 427.5 491.25 427.5 Z"/>

<path id="Layer1_1_1_STROKES" stroke="#000000" stroke-width="0.1" stroke-linejoin="round" stroke-linecap="round" fill="none" d="
M 109.85 0.6
L 405.15 0.6
Q 450.5 0.6 482.5 33.2 514.55 65.85 514.55 112.05
L 514.55 413
Q 514.55 459.2 482.5 491.8 450.5 524.45 405.15 524.45
L 109.85 524.45
Q 64.5 524.45 32.45 491.8 0.5 459.2 0.5 413
L 0.5 112.05
Q 0.5 65.85 32.45 33.2 64.5 0.6 109.85 0.6 Z"/>

<path id="Layer0_0_1_STROKES" stroke="#FFFFFF" stroke-width="10" stroke-linejoin="round" stroke-linecap="round" fill="none" d="
M 247.1 249.1
L 79.6 416.6 32.1 369.1 152.1 249.1 32.1 129.1 79.6 81.6 247.1 249.1 Z
M 465.7 416.6
L 465.7 380.4 269.1 380.4 269.1 416.6 465.7 416.6 Z"/>
</defs>

<g transform="matrix( 1, 0, 0, 1, 0,0) ">
<use xlink:href="#Layer1_0_FILL"/>

<use xlink:href="#Layer1_0_1_STROKES"/>
</g>

<g transform="matrix( 1, 0, 0, 1, 0,0) ">
<use xlink:href="#Layer1_1_FILL"/>

<use xlink:href="#Layer1_1_1_STROKES"/>
</g>

<g transform="matrix( 1, 0, 0, 1, 0,0) ">
<use xlink:href="#Layer0_0_FILL"/>

<use xlink:href="#Layer0_0_1_STROKES"/>
</g>
</svg>
