
<svg xmlns="http://www.w3.org/2000/svg" version="1.1" xmlns:xlink="http://www.w3.org/1999/xlink" preserveAspectRatio="none" x="0px" y="0px" width="1000px" height="1000px" viewBox="0 0 1000 1000">
<defs>
<g id="Layer0_0_FILL">
<path fill="#FFDC00" stroke="none" d="
M 593.45 308.25
L 511.85 278.6 274.75 303.1 356.35 332.75 593.45 308.25
M 374.85 844.15
L 611.85 819.6 530.25 789.95 293.2 814.45 374.85 844.15
M 693.5 849.25
L 691.65 849.4 456.35 873.75 537.95 903.4 775.05 878.85 693.5 849.25
M 938.25 938.15
L 856.6 908.5 619.5 933 701.1 962.65 938.25 938.15
M 1025.4 969.8
L 1019.75 967.75 782.7 992.3 839.7 1013 1025.4 1013 1025.4 969.8
M 130.05 755.2
L 211.65 784.85 448.7 760.3 367.1 730.65 130.05 755.2
M 285.55 701
L 203.95 671.35 -24.35 695 -24.35 699.1 48.4 725.55 285.55 701
M 22.35 100.75
L 22.3 100.75 -24.35 105.55 -24.35 143.7 103.9 130.4 103.95 130.4 22.35 100.75
M 185.85 160.15
L 185.5 160.05 -24.35 181.75 -24.35 194.4 30 214.2 30.05 214.2 267.15 189.7 185.85 160.15
M 438.1 362.45
L 438 362.45 -24.35 410.35 -24.35 695 203.95 671.35 1025.4 586.3 1025.4 301.65 675.1 337.9 675.05 337.9 672.2 338.15 437.95 362.4 438.1 362.45
M 430.25 248.95
L 430.3 248.95 348.65 219.3 348.6 219.3 111.6 243.85 193.25 273.5 430.25 248.95 Z"/>

<path fill="#000000" stroke="none" d="
M 436.6 361.95
L 437.9 362.4 437.95 362.4 672.2 338.15 674.9 337.85 675 337.85 593.45 308.25 356.35 332.75 436.6 361.95
M 430.3 248.95
L 430.25 248.95 193.25 273.5 274.75 303.1 511.85 278.6 430.3 248.95
M 856.6 908.5
L 775.05 878.85 537.95 903.4 619.5 933 619.5 933 856.6 908.5
M 938.25 938.15
L 701.1 962.65 782.7 992.3 1019.75 967.75 938.25 938.15
M 691.65 849.4
L 693.4 849.2 611.85 819.6 374.85 844.15 456.35 873.75 691.65 849.4
M 530.25 789.95
L 448.7 760.3 211.65 784.85 293.15 814.45 293.2 814.45 530.25 789.95
M 48.5 725.55
L 130.05 755.2 367.1 730.65 285.6 701.05 48.5 725.55
M 22.3 100.75
L 22.35 100.75 -24.35 83.8 -24.35 105.55 22.3 100.75
M 185.5 160.05
L 185.1 159.9 104 130.4 103.95 130.4 103.9 130.4 -24.35 143.7 -24.35 181.75 185.5 160.05
M 348.6 219.3
L 348.65 219.3 267.15 189.7 30.05 214.2 30.75 214.45 111.6 243.85 348.6 219.3 Z"/>
</g>

<path id="Layer0_0_1_STROKES" stroke="#000000" stroke-width="1" stroke-linejoin="round" stroke-linecap="round" fill="none" d="
M 430.3 248.95
L 430.25 248.95 193.25 273.5 274.75 303.1 511.85 278.6 430.3 248.95 348.65 219.3 348.625 219.3 111.6 243.85 193.25 273.5
M 436.625 361.95
L 438.025 362.475 438.125 362.475 437.95 362.4 437.9 362.4 436.625 361.95 356.35 332.75 274.75 303.1
M 511.85 278.6
L 593.45 308.25 675 337.85 675.05 337.9 675.1 337.925 1025.4 301.65
M 1025.4 586.3
L 203.95 671.375 285.55 701.025 285.6 701.05 367.125 730.675 448.725 760.325 530.25 789.95 611.875 819.6 693.425 849.225 693.5 849.25 775.05 878.875 856.6 908.5 938.25 938.15 1019.775 967.775 1025.4 969.8
M 839.725 1013
L 782.7 992.3 701.125 962.675 619.525 933.025 619.5 933.025 537.975 903.4 456.35 873.75 374.85 844.15 293.2 814.475 293.175 814.475 211.65 784.85 130.05 755.2 48.5 725.575 48.425 725.55 -24.35 699.125
M -24.35 410.375
L 438.025 362.475
M 593.45 308.25
L 356.35 332.75
M 267.15 189.7
L 185.875 160.175 185.5 160.05 -24.35 181.75
M -24.35 194.425
L 30 214.2 30.05 214.2 267.15 189.7 348.65 219.3
M 185.875 160.175
L 185.1 159.9 185.5 160.05
M 185.1 159.9
L 104 130.4 103.95 130.4 103.925 130.4 -24.35 143.7
M 22.35 100.75
L 22.3 100.75 -24.35 105.575
M 103.95 130.4
L 22.35 100.75 -24.35 83.8
M 30 214.2
L 30.75 214.475 30.05 214.2
M 30.75 214.475
L 111.6 243.85
M 48.425 725.55
L 285.55 701.025
M 48.5 725.575
L 285.6 701.05
M 130.05 755.2
L 367.125 730.675
M 211.65 784.85
L 448.725 760.325
M 674.925 337.85
L 675.05 337.9 672.225 338.15 437.95 362.4
M 675 337.85
L 674.925 337.85 672.225 338.15
M 693.5 849.25
L 691.675 849.425 693.425 849.225
M 701.125 962.675
L 938.25 938.15
M 782.7 992.3
L 1019.775 967.775
M 374.85 844.15
L 611.875 819.6
M 537.975 903.4
L 775.05 878.875
M 456.35 873.75
L 691.675 849.425
M 619.525 933.025
L 856.6 908.5
M 293.2 814.475
L 530.25 789.95
M -24.35 695.025
L 203.95 671.375"/>
</defs>

<g transform="matrix( 1, 0, 0, 1, 0,0) ">
<use xlink:href="#Layer0_0_FILL"/>

<use xlink:href="#Layer0_0_1_STROKES"/>
</g>

<g transform="matrix( 1.5625152587890625, -0.1625823974609375, 0.1625823974609375, 1.5625152587890625, -119.3,430.15) ">
<clipPath id="Mask_Mask_1">
<rect x="-2" y="-2" width="776.55" height="169.9" fill="#FFFFFF" stroke="none"/>
</clipPath>

<text clip-path="url(#Mask_Mask_1)" writing-mode="lr"><tspan x="251.5" y="64.4" baseline-shift="0%" font-family="Consolas" font-size="70" fill="#000000" xml:space="preserve">WORK IN</tspan><tspan x="232.25" y="148.35" baseline-shift="0%" font-family="Consolas" font-size="70" fill="#000000" xml:space="preserve">PROGRESS</tspan></text>
</g>
</svg>
